if (_typeface_js && _typeface_js.loadFace) _typeface_js.loadFace({"glyphs":{"0":{"ha":915,"x_min":0,"x_max":0,"o":"m 461 54 b 758 458 657 54 758 194 l 758 542 b 457 940 758 785 647 940 b 158 539 268 940 158 794 l 158 454 b 461 54 158 190 272 54 m 461 -11 b 79 454 225 -11 79 165 l 79 538 b 457 1004 79 828 221 1004 b 838 542 693 1004 838 825 l 838 457 b 461 -11 838 168 701 -11 "},"1":{"ha":511,"x_min":0,"x_max":0,"o":"m 265 913 l 38 754 l 38 826 l 276 993 l 342 993 l 342 0 l 265 0 "},"2":{"ha":746,"x_min":0,"x_max":0,"o":"m 28 18 l 426 431 b 582 736 532 539 582 629 b 371 940 582 868 499 940 b 133 704 243 940 153 867 l 61 704 b 371 1004 76 892 197 1004 b 660 733 542 1004 660 906 b 471 382 660 613 593 501 l 150 64 l 674 64 l 674 0 l 28 0 "},"3":{"ha":788,"x_min":0,"x_max":0,"o":"m 383 -11 b 51 281 179 -11 58 122 l 122 281 b 385 53 135 156 215 53 b 633 275 544 53 633 135 b 407 488 633 403 561 488 l 335 488 l 335 553 l 401 553 b 603 742 544 553 603 638 b 399 939 603 854 532 939 b 160 732 261 939 172 851 l 90 732 b 399 1004 100 883 224 1004 b 678 743 575 1004 678 885 b 515 525 678 635 613 556 b 713 275 633 499 713 413 b 383 -11 713 94 578 -11 "},"4":{"ha":826,"x_min":0,"x_max":0,"o":"m 558 224 l 46 224 l 46 247 l 526 993 l 635 993 l 635 288 l 772 288 l 772 224 l 635 224 l 635 0 l 558 0 m 558 288 l 558 936 l 149 288 "},"5":{"ha":779,"x_min":0,"x_max":0,"o":"m 372 -11 b 53 256 171 -11 67 110 l 128 256 b 372 53 144 144 211 53 b 625 322 531 53 625 156 b 386 582 625 479 524 582 b 140 474 265 582 192 536 l 111 474 l 111 993 l 653 993 l 653 926 l 176 926 l 176 563 b 399 646 218 604 296 646 b 704 322 571 646 704 521 b 372 -11 704 115 564 -11 "},"6":{"ha":833,"x_min":0,"x_max":0,"o":"m 429 -11 b 83 407 178 -11 83 172 l 83 479 b 457 1004 83 843 239 1004 b 736 778 603 1004 713 932 l 663 778 b 453 939 642 886 574 939 b 160 503 282 939 163 813 l 160 463 b 438 632 206 572 321 632 b 763 314 644 632 763 493 b 429 -11 763 121 632 -11 m 429 51 b 683 311 583 51 683 157 b 428 569 683 465 593 569 b 168 324 286 569 168 476 b 429 51 168 172 257 51 "},"7":{"ha":700,"x_min":0,"x_max":0,"o":"m 576 929 l 39 929 l 39 993 l 674 993 l 674 981 l 286 0 l 207 0 "},"8":{"ha":810,"x_min":0,"x_max":0,"o":"m 406 -11 b 72 276 236 -11 72 86 b 290 538 72 415 167 506 b 114 754 189 567 114 642 b 406 1004 114 908 256 1004 b 696 757 557 1004 696 906 b 522 538 696 642 624 569 b 738 279 650 504 738 417 b 406 -11 738 88 582 -11 m 406 54 b 658 282 553 54 658 131 b 408 503 658 425 546 503 b 151 279 271 503 151 424 b 406 54 151 129 267 54 m 410 565 b 618 757 528 565 618 632 b 406 942 618 865 528 942 b 192 754 283 942 192 869 b 410 565 192 631 300 565 "},"9":{"ha":832,"x_min":0,"x_max":0,"o":"m 390 -10 b 86 228 228 -10 114 74 l 161 228 b 392 54 186 117 263 54 b 675 471 567 54 674 161 l 675 524 b 393 361 629 418 511 361 b 69 681 192 361 69 496 b 404 1004 69 874 201 1004 b 750 594 639 1004 750 839 l 750 481 b 390 -10 750 131 615 -10 m 403 424 b 665 663 546 424 665 515 b 404 943 665 817 576 943 b 149 683 249 943 149 838 b 403 424 149 529 239 424 "},"Ð":{"ha":968,"x_min":0,"x_max":0,"o":"m 39 529 l 143 529 l 143 993 l 400 993 b 894 506 729 993 894 782 l 894 493 b 397 0 894 218 738 0 l 143 0 l 143 468 l 39 468 m 394 64 b 815 494 678 64 815 242 l 815 506 b 393 929 815 750 686 929 l 221 929 l 221 529 l 510 529 l 510 468 l 221 468 l 221 64 "},"ð":{"ha":825,"x_min":0,"x_max":0,"o":"m 194 854 l 363 951 b 190 1074 308 996 250 1036 l 289 1074 b 422 986 329 1051 375 1022 l 558 1067 l 585 1021 l 464 951 b 761 386 614 824 761 629 l 761 361 b 410 -11 761 142 606 -11 b 60 357 213 -11 60 143 l 60 368 b 392 738 60 586 217 738 b 642 611 513 738 589 683 b 404 917 590 724 506 826 l 221 811 m 410 51 b 685 358 567 51 685 169 l 685 376 b 407 675 685 558 568 675 b 136 368 256 675 136 557 l 136 357 b 410 51 136 171 253 51 "},"Ł":{"ha":757,"x_min":0,"x_max":0,"o":"m 47 422 l 149 460 l 149 993 l 226 993 l 226 488 l 535 603 l 535 540 l 226 425 l 226 64 l 708 64 l 708 0 l 149 0 l 149 397 l 47 360 "},"ł":{"ha":332,"x_min":0,"x_max":0,"o":"m 22 525 l 129 592 l 129 1074 l 203 1074 l 203 639 l 315 710 l 315 646 l 203 575 l 203 0 l 129 0 l 129 528 l 22 461 "},"Š":{"ha":836,"x_min":0,"x_max":0,"o":"m 219 1240 l 278 1240 l 407 1133 l 538 1240 l 594 1240 l 440 1071 l 371 1071 m 428 -11 b 58 285 182 -11 79 122 l 135 285 b 428 53 151 160 221 53 b 685 265 583 53 685 143 b 418 483 685 404 618 453 b 97 744 201 515 97 588 b 410 1004 97 899 224 1004 b 729 754 594 1004 707 913 l 658 754 b 410 940 635 878 557 940 b 169 750 257 940 169 869 b 431 553 169 642 224 583 b 760 271 653 519 760 457 b 428 -11 760 114 628 -11 "},"š":{"ha":646,"x_min":0,"x_max":0,"o":"m 136 1039 l 194 1039 l 322 914 l 451 1039 l 508 1039 l 356 851 l 286 851 m 332 -12 b 53 217 161 -12 63 78 l 124 217 b 332 50 136 118 197 50 b 517 193 454 50 517 106 b 326 340 517 286 463 315 b 76 543 149 372 76 418 b 315 738 76 667 193 738 b 568 540 446 738 549 683 l 497 540 b 314 675 479 633 419 675 b 144 546 213 675 144 624 b 343 406 144 463 194 432 b 588 199 499 378 588 340 b 332 -12 588 76 497 -12 "},"Ý":{"ha":803,"x_min":0,"x_max":0,"o":"m 372 442 l 32 993 l 118 993 l 413 507 l 693 993 l 771 993 l 450 440 l 450 0 l 372 0 m 456 1240 l 547 1240 l 425 1071 l 367 1071 "},"ý":{"ha":706,"x_min":0,"x_max":0,"o":"m 322 63 l 35 726 l 114 726 l 363 147 l 594 726 l 669 726 l 267 -253 l 190 -253 m 413 1044 l 503 1044 l 375 840 l 318 840 "},"Þ":{"ha":789,"x_min":0,"x_max":0,"o":"m 128 993 l 206 993 l 206 793 l 390 793 b 729 521 583 793 729 721 l 729 515 b 390 239 729 313 583 239 l 206 239 l 206 0 l 128 0 m 394 301 b 651 515 556 301 651 363 l 651 521 b 394 729 651 679 550 729 l 206 729 l 206 301 "},"þ":{"ha":850,"x_min":0,"x_max":0,"o":"m 114 1074 l 188 1074 l 188 557 b 465 738 231 653 338 738 b 790 371 649 738 790 597 l 790 360 b 464 -11 790 132 651 -11 b 188 165 319 -11 226 76 l 188 -253 l 114 -253 m 458 51 b 714 357 611 51 714 163 l 714 368 b 458 675 714 568 597 675 b 186 368 314 675 186 568 l 186 357 b 458 51 186 158 307 51 "},"Ž":{"ha":815,"x_min":0,"x_max":0,"o":"m 224 1240 l 282 1240 l 411 1133 l 542 1240 l 599 1240 l 444 1071 l 375 1071 m 38 15 l 653 929 l 88 929 l 88 993 l 761 993 l 761 979 l 154 67 l 753 67 l 753 0 l 38 0 "},"ž":{"ha":658,"x_min":0,"x_max":0,"o":"m 154 1039 l 213 1039 l 340 914 l 469 1039 l 526 1039 l 374 851 l 304 851 m 33 13 l 506 664 l 75 664 l 75 726 l 621 726 l 621 713 l 153 65 l 611 65 l 611 0 l 33 0 "},"½":{"ha":924,"x_min":0,"x_max":0,"o":"m 757 993 l 819 993 l 103 0 l 40 0 m 157 928 l 35 843 l 35 900 l 168 993 l 219 993 l 219 517 l 157 517 m 540 13 l 721 196 b 807 346 778 253 807 294 b 715 433 807 400 771 433 b 611 325 654 433 619 396 l 554 325 b 717 482 560 424 622 482 b 868 346 811 482 868 428 b 768 171 868 282 835 233 l 643 49 l 874 49 l 874 0 l 540 0 "},"¼":{"ha":918,"x_min":0,"x_max":0,"o":"m 156 928 l 33 843 l 33 900 l 167 993 l 218 993 l 218 517 l 156 517 m 779 993 l 842 993 l 125 0 l 63 0 m 754 103 l 507 103 l 507 125 l 735 476 l 814 476 l 814 150 l 879 150 l 879 103 l 814 103 l 814 0 l 754 0 m 756 150 l 756 431 l 578 150 "},"¹":{"ha":301,"x_min":0,"x_max":0,"o":"m 151 928 l 29 843 l 29 900 l 163 993 l 214 993 l 214 517 l 151 517 "},"¾":{"ha":938,"x_min":0,"x_max":0,"o":"m 217 511 b 38 657 107 511 42 572 l 94 657 b 215 558 101 603 139 558 b 324 651 285 558 324 593 b 222 742 324 706 288 742 l 185 742 l 185 788 l 219 788 b 311 869 282 788 311 821 b 218 951 311 918 276 951 b 111 860 154 951 118 913 l 56 860 b 219 999 61 938 119 999 b 371 872 313 999 371 944 b 289 768 371 818 338 782 b 386 650 344 756 386 715 b 217 511 386 563 319 511 m 836 993 l 899 993 l 182 0 l 119 0 m 768 103 l 521 103 l 521 125 l 749 476 l 828 476 l 828 150 l 893 150 l 893 103 l 828 103 l 828 0 l 768 0 m 769 150 l 769 431 l 592 150 "},"³":{"ha":428,"x_min":0,"x_max":0,"o":"m 213 511 b 33 657 103 511 38 572 l 90 657 b 211 558 97 603 135 558 b 319 651 281 558 319 593 b 218 742 319 706 283 742 l 181 742 l 181 788 l 215 788 b 307 869 278 788 307 821 b 214 951 307 918 272 951 b 107 860 150 951 114 913 l 51 860 b 215 999 57 938 115 999 b 367 872 308 999 367 944 b 285 768 367 818 333 782 b 382 650 340 756 382 715 b 213 511 382 563 315 511 "},"²":{"ha":399,"x_min":0,"x_max":0,"o":"m 21 529 l 201 711 b 288 861 258 769 288 811 b 196 950 288 917 251 950 b 92 842 135 950 100 911 l 35 842 b 197 999 40 940 103 999 b 349 863 292 999 349 943 b 249 686 349 797 315 750 l 124 565 l 354 565 l 354 517 l 21 517 "},"¦":{"ha":339,"x_min":0,"x_max":0,"o":"m 136 413 l 199 413 l 199 -206 l 136 -206 m 136 1078 l 199 1078 l 199 510 l 136 510 "},"−":{"ha":708,"x_min":0,"x_max":0,"o":"m 50 507 l 658 507 l 658 443 l 50 443 "},"×":{"ha":671,"x_min":0,"x_max":0,"o":"m 63 242 l 286 464 l 63 688 l 106 732 l 329 508 l 553 732 l 596 688 l 372 464 l 596 242 l 553 199 l 329 421 l 106 199 "}," ":{"ha":343,"x_min":0,"x_max":0,"o":""},"!":{"ha":376,"x_min":0,"x_max":0,"o":"m 189 -7 b 129 51 156 -7 129 19 b 189 111 129 85 156 111 b 247 51 221 111 247 85 b 189 -7 247 19 221 -7 m 149 993 l 231 993 l 219 249 l 161 249 "},"\"":{"ha":424,"x_min":0,"x_max":0,"o":"m 81 993 l 161 993 l 149 703 l 93 703 m 263 993 l 343 993 l 331 703 l 275 703 "},"#":{"ha":683,"x_min":0,"x_max":0,"o":"m 397 410 l 231 410 l 192 138 l 129 138 l 168 410 l 43 410 l 43 472 l 178 472 l 210 690 l 82 690 l 82 753 l 218 753 l 254 993 l 317 993 l 281 753 l 447 753 l 483 993 l 546 993 l 510 753 l 639 753 l 639 690 l 501 690 l 469 472 l 600 472 l 600 410 l 460 410 l 421 138 l 358 138 m 240 472 l 407 472 l 439 690 l 272 690 "},"$":{"ha":842,"x_min":0,"x_max":0,"o":"m 393 -10 b 60 285 168 1 79 131 l 135 285 b 393 53 151 167 210 65 l 393 489 b 97 744 196 522 97 594 b 393 1004 97 893 218 997 l 393 1129 l 449 1129 l 449 1003 b 735 754 613 992 714 901 l 664 754 b 449 940 642 867 574 931 l 449 547 b 763 271 660 513 763 451 b 449 -11 763 118 639 -4 l 449 -187 l 393 -187 m 688 265 b 449 479 688 397 625 449 l 449 51 b 688 265 594 58 688 147 m 169 750 b 393 556 169 649 217 589 l 393 940 b 169 750 254 935 169 864 "},"%":{"ha":1064,"x_min":0,"x_max":0,"o":"m 274 611 b 422 776 358 611 422 671 b 274 942 422 878 358 942 b 125 774 190 942 125 881 b 274 611 125 669 190 611 m 274 553 b 56 774 161 553 56 640 b 274 1000 56 907 158 1000 b 490 776 392 1000 490 907 b 274 553 490 640 388 553 m 813 993 l 882 993 l 250 0 l 179 0 m 789 50 b 938 215 874 50 938 110 b 789 379 938 317 875 379 b 640 213 706 379 640 318 b 789 50 640 108 707 50 m 789 -10 b 572 213 676 -10 572 79 b 789 439 572 346 674 439 b 1007 215 907 439 1007 346 b 789 -10 1007 79 903 -10 "},"&":{"ha":921,"x_min":0,"x_max":0,"o":"m 700 203 l 874 0 l 782 0 l 656 147 b 364 -10 593 65 503 -10 b 68 258 185 -10 68 101 b 308 560 68 414 182 497 b 207 782 243 640 207 706 b 432 999 207 915 311 999 b 638 799 553 999 638 911 b 413 544 638 679 542 601 l 658 256 l 792 503 l 863 503 m 367 53 b 615 196 476 53 556 114 l 344 517 b 143 265 238 464 143 393 b 367 53 143 139 225 53 m 279 782 b 379 586 279 717 317 661 b 567 800 496 640 567 699 b 429 939 567 881 514 939 b 279 782 344 939 279 881 "},"'":{"ha":242,"x_min":0,"x_max":0,"o":"m 81 993 l 161 993 l 149 703 l 93 703 "},"(":{"ha":415,"x_min":0,"x_max":0,"o":"m 306 -206 b 76 433 179 -56 76 157 b 306 1074 76 710 179 924 l 381 1074 b 154 433 256 918 154 718 b 381 -206 154 149 256 -50 l 306 -206 "},")":{"ha":415,"x_min":0,"x_max":0,"o":"m 36 -203 b 263 436 161 -47 263 153 b 36 1076 263 721 161 921 l 110 1076 b 339 436 238 926 339 713 b 110 -203 339 160 238 -53 l 36 -203 "},"*":{"ha":579,"x_min":0,"x_max":0,"o":"m 122 625 l 247 788 l 64 843 l 85 904 l 263 833 l 257 1032 l 324 1032 l 318 833 l 496 904 l 515 843 l 332 788 l 457 625 l 406 588 l 289 757 l 174 588 "},"+":{"ha":708,"x_min":0,"x_max":0,"o":"m 321 443 l 50 443 l 50 507 l 321 507 l 321 797 l 388 797 l 388 507 l 658 507 l 658 443 l 388 443 l 388 153 l 321 153 "},",":{"ha":318,"x_min":0,"x_max":0,"o":"m 46 -137 l 153 117 l 225 83 l 96 -162 "},"-":{"ha":463,"x_min":0,"x_max":0,"o":"m 86 419 l 376 419 l 376 350 l 86 350 "},".":{"ha":318,"x_min":0,"x_max":0,"o":"m 158 -7 b 100 51 126 -7 100 19 b 158 111 100 85 126 111 b 218 51 192 111 218 85 b 158 -7 218 19 192 -7 "},"/":{"ha":543,"x_min":0,"x_max":0,"o":"m 422 1078 l 492 1078 l 88 -206 l 18 -206 "},":":{"ha":329,"x_min":0,"x_max":0,"o":"m 164 -7 b 106 51 132 -7 106 19 b 164 111 106 85 132 111 b 224 51 197 111 224 85 b 164 -7 224 19 197 -7 m 164 444 b 106 503 132 444 106 469 b 164 561 106 536 132 561 b 224 503 197 561 224 536 b 164 444 224 469 197 444 "},";":{"ha":329,"x_min":0,"x_max":0,"o":"m 32 -137 l 139 117 l 213 83 l 82 -162 m 171 444 b 113 503 139 444 113 469 b 171 561 113 536 139 561 b 231 503 204 561 231 536 b 171 444 231 469 204 444 "},"<":{"ha":689,"x_min":0,"x_max":0,"o":"m 71 438 l 71 457 l 604 750 l 604 678 l 179 447 l 604 217 l 604 144 "},"=":{"ha":672,"x_min":0,"x_max":0,"o":"m 56 360 l 617 360 l 617 296 l 56 296 m 56 592 l 617 592 l 617 528 l 56 528 "},">":{"ha":689,"x_min":0,"x_max":0,"o":"m 85 217 l 510 447 l 85 678 l 85 750 l 618 457 l 618 438 l 85 144 "},"?":{"ha":663,"x_min":0,"x_max":0,"o":"m 261 328 b 400 576 261 439 324 500 b 518 779 464 640 518 692 b 338 942 518 874 461 942 b 122 733 217 942 133 863 l 51 733 b 339 1004 61 896 176 1004 b 594 782 513 1004 594 901 b 451 538 594 669 526 613 b 328 322 381 468 328 415 l 328 249 l 261 249 m 293 -7 b 233 51 260 -7 233 19 b 293 111 233 85 260 111 b 351 51 325 111 351 85 b 293 -7 351 19 325 -7 "},"@":{"ha":1263,"x_min":0,"x_max":0,"o":"m 639 -204 b 64 364 267 -204 64 67 b 656 956 64 703 340 956 b 1201 447 988 956 1201 733 b 957 97 1201 193 1068 97 b 799 238 854 97 807 149 b 585 88 765 165 686 88 b 364 329 454 88 364 179 b 633 651 364 515 489 651 b 815 522 735 651 797 592 l 828 639 l 901 639 l 863 306 b 957 153 850 213 879 153 b 1136 444 1051 153 1136 242 b 656 896 1136 707 958 896 b 133 365 365 896 133 674 b 639 -144 133 97 306 -144 b 1017 0 822 -144 938 -83 l 1086 0 b 639 -204 1018 -112 854 -204 m 597 146 b 801 403 706 146 801 256 b 639 592 801 524 738 592 b 439 329 535 592 439 489 b 597 146 439 214 504 146 "},"A":{"ha":908,"x_min":0,"x_max":0,"o":"m 403 993 l 506 993 l 863 0 l 785 0 l 675 304 l 228 304 l 119 0 l 46 0 m 250 367 l 653 367 l 451 929 "},"B":{"ha":839,"x_min":0,"x_max":0,"o":"m 128 993 l 410 993 b 711 742 585 993 711 922 l 711 736 b 542 521 711 626 653 551 b 760 279 690 493 760 414 l 760 274 b 451 0 760 92 640 0 l 128 0 m 450 63 b 685 274 606 63 685 136 l 685 279 b 424 485 685 415 597 485 l 204 485 l 204 63 m 411 546 b 635 738 563 546 635 613 l 635 743 b 408 931 635 872 554 931 l 204 931 l 204 546 "},"C":{"ha":1007,"x_min":0,"x_max":0,"o":"m 535 -11 b 74 490 251 -11 74 190 l 74 501 b 535 1006 74 794 275 1006 b 936 694 740 1006 906 899 l 858 694 b 536 943 828 854 719 943 b 153 503 314 943 153 765 l 153 492 b 536 54 153 224 300 54 b 875 319 715 54 843 149 l 947 319 b 535 -11 911 106 749 -11 "},"D":{"ha":953,"x_min":0,"x_max":0,"o":"m 381 64 b 800 494 663 64 800 242 l 800 506 b 379 929 800 750 671 929 l 206 929 l 206 64 m 128 993 l 386 993 b 881 506 714 993 881 782 l 881 493 b 383 0 881 218 722 0 l 128 0 "},"E":{"ha":786,"x_min":0,"x_max":0,"o":"m 128 993 l 699 993 l 699 929 l 206 929 l 206 542 l 606 542 l 606 478 l 206 478 l 206 64 l 724 64 l 724 0 l 128 0 "},"F":{"ha":750,"x_min":0,"x_max":0,"o":"m 128 993 l 693 993 l 693 929 l 206 929 l 206 535 l 589 535 l 589 471 l 206 471 l 206 0 l 128 0 "},"G":{"ha":1050,"x_min":0,"x_max":0,"o":"m 550 -11 b 74 490 251 -11 74 199 l 74 501 b 547 1006 74 792 275 1006 b 946 710 738 1006 908 917 l 868 710 b 549 943 832 874 707 943 b 153 503 310 943 153 761 l 153 492 b 550 53 153 228 294 53 b 901 414 782 53 899 196 l 901 419 l 596 419 l 596 485 l 976 485 l 976 428 b 550 -11 976 142 806 -11 "},"H":{"ha":996,"x_min":0,"x_max":0,"o":"m 128 993 l 206 993 l 206 531 l 790 531 l 790 993 l 868 993 l 868 0 l 790 0 l 790 465 l 206 465 l 206 0 l 128 0 "},"I":{"ha":347,"x_min":0,"x_max":0,"o":"m 135 993 l 213 993 l 213 0 l 135 0 "},"J":{"ha":557,"x_min":0,"x_max":0,"o":"m 190 -10 b 51 18 121 -10 78 6 l 51 83 b 186 54 86 68 126 54 b 365 254 297 54 365 111 l 365 993 l 443 993 l 443 251 b 190 -10 443 68 335 -10 "},"K":{"ha":832,"x_min":0,"x_max":0,"o":"m 128 993 l 206 993 l 206 504 l 688 994 l 776 994 l 296 510 l 800 0 l 706 0 l 206 501 l 206 0 l 128 0 "},"L":{"ha":736,"x_min":0,"x_max":0,"o":"m 128 993 l 206 993 l 206 64 l 688 64 l 688 0 l 128 0 "},"M":{"ha":1182,"x_min":0,"x_max":0,"o":"m 128 993 l 239 993 l 589 140 l 940 993 l 1049 993 l 1049 0 l 972 0 l 972 896 l 599 0 l 574 0 l 200 896 l 200 0 l 128 0 "},"N":{"ha":990,"x_min":0,"x_max":0,"o":"m 128 993 l 233 993 l 789 107 l 789 993 l 863 993 l 863 0 l 771 0 l 203 907 l 203 0 l 128 0 "},"O":{"ha":1113,"x_min":0,"x_max":0,"o":"m 560 54 b 960 494 797 54 960 240 l 960 506 b 557 940 960 747 800 940 b 153 503 314 940 153 753 l 153 492 b 560 54 153 239 329 54 m 560 -11 b 74 490 276 -11 74 213 l 74 501 b 557 1004 74 783 278 1004 b 1040 504 838 1004 1040 783 l 1040 493 b 560 -11 1040 213 838 -11 "},"P":{"ha":789,"x_min":0,"x_max":0,"o":"m 128 993 l 390 993 b 729 714 583 993 729 915 l 729 708 b 392 425 729 504 585 425 l 206 425 l 206 0 l 128 0 m 397 488 b 651 708 557 488 651 556 l 651 714 b 394 929 651 875 550 929 l 206 929 l 206 488 "},"Q":{"ha":1113,"x_min":0,"x_max":0,"o":"m 804 56 b 560 -11 733 13 651 -11 b 74 490 276 -11 74 213 l 74 501 b 557 1004 74 783 278 1004 b 1040 504 838 1004 1040 783 l 1040 493 b 858 93 1040 329 971 185 l 981 -37 l 933 -83 m 560 54 b 758 106 635 54 701 72 l 618 258 l 665 304 l 813 143 b 960 494 906 222 960 347 l 960 506 b 557 940 960 747 800 940 b 153 503 314 940 153 753 l 153 492 b 560 54 153 239 329 54 "},"R":{"ha":842,"x_min":0,"x_max":0,"o":"m 128 993 l 400 993 b 738 726 593 993 738 918 l 738 721 b 481 458 738 556 629 479 l 796 0 l 710 0 l 399 453 l 206 453 l 206 0 l 128 0 m 404 515 b 660 721 564 515 660 576 l 660 726 b 404 929 660 879 558 929 l 206 929 l 206 515 "},"S":{"ha":836,"x_min":0,"x_max":0,"o":"m 428 -11 b 58 285 182 -11 79 122 l 135 285 b 428 53 151 160 221 53 b 685 265 583 53 685 143 b 418 483 685 404 618 453 b 97 744 201 515 97 588 b 410 1004 97 899 224 1004 b 729 754 594 1004 707 913 l 658 754 b 410 940 635 878 557 940 b 169 750 257 940 169 869 b 431 553 169 642 224 583 b 760 271 653 519 760 457 b 428 -11 760 114 628 -11 "},"T":{"ha":776,"x_min":0,"x_max":0,"o":"m 350 929 l 42 929 l 42 993 l 735 993 l 735 929 l 426 929 l 426 0 l 350 0 "},"U":{"ha":947,"x_min":0,"x_max":0,"o":"m 469 -10 b 114 356 246 -10 114 118 l 114 993 l 190 993 l 190 364 b 471 56 190 151 286 56 b 757 382 661 56 757 147 l 757 993 l 835 993 l 835 371 b 469 -10 835 133 717 -10 "},"V":{"ha":885,"x_min":0,"x_max":0,"o":"m 40 993 l 117 993 l 449 76 l 771 993 l 843 993 l 492 0 l 400 0 "},"W":{"ha":1278,"x_min":0,"x_max":0,"o":"m 46 993 l 124 993 l 351 118 l 614 993 l 668 993 l 921 115 l 1161 993 l 1232 993 l 960 0 l 885 0 l 640 856 l 382 0 l 308 0 "},"X":{"ha":897,"x_min":0,"x_max":0,"o":"m 407 514 l 93 993 l 178 993 l 456 572 l 731 993 l 811 993 l 494 513 l 833 0 l 746 0 l 444 456 l 143 0 l 64 0 "},"Y":{"ha":803,"x_min":0,"x_max":0,"o":"m 372 442 l 32 993 l 118 993 l 413 507 l 693 993 l 771 993 l 450 440 l 450 0 l 372 0 "},"Z":{"ha":815,"x_min":0,"x_max":0,"o":"m 38 15 l 653 929 l 88 929 l 88 993 l 761 993 l 761 979 l 154 67 l 753 67 l 753 0 l 38 0 "},"[":{"ha":472,"x_min":0,"x_max":0,"o":"m 129 1078 l 415 1078 l 415 1018 l 203 1018 l 203 -146 l 415 -146 l 415 -206 l 129 -206 "},"\\":{"ha":543,"x_min":0,"x_max":0,"o":"m 51 1078 l 121 1078 l 525 -206 l 456 -206 "},"]":{"ha":472,"x_min":0,"x_max":0,"o":"m 58 -146 l 269 -146 l 269 1018 l 58 1018 l 58 1078 l 343 1078 l 343 -206 l 58 -206 "},"^":{"ha":664,"x_min":0,"x_max":0,"o":"m 296 993 l 369 993 l 601 586 l 525 586 l 332 926 l 138 586 l 64 586 "},"_":{"ha":540,"x_min":0,"x_max":0,"o":"m -1 -149 l 542 -149 l 542 -210 l -1 -210 "},"`":{"ha":556,"x_min":0,"x_max":0,"o":"m 128 1044 l 218 1044 l 313 840 l 256 840 "},"a":{"ha":735,"x_min":0,"x_max":0,"o":"m 307 -11 b 61 196 164 -11 61 58 b 401 415 61 364 222 415 l 553 415 l 553 481 b 369 675 553 617 497 675 b 165 521 260 675 182 628 l 93 521 b 372 738 110 674 235 738 b 626 481 524 738 626 665 l 626 0 l 553 0 l 553 111 b 307 -11 507 40 429 -11 m 313 49 b 553 235 446 49 553 126 l 553 358 l 404 358 b 135 196 253 358 135 326 b 313 49 135 103 193 49 "},"b":{"ha":850,"x_min":0,"x_max":0,"o":"m 464 -11 b 188 165 321 -11 226 76 l 188 0 l 114 0 l 114 1074 l 188 1074 l 188 557 b 464 738 229 651 336 738 b 790 371 647 738 790 597 l 790 360 b 464 -11 790 132 651 -11 m 458 51 b 714 357 611 51 714 163 l 714 368 b 457 675 714 568 596 675 b 186 368 315 675 186 568 l 186 357 b 458 51 186 158 307 51 "},"c":{"ha":772,"x_min":0,"x_max":0,"o":"m 407 -11 b 60 356 211 -11 60 135 l 60 367 b 407 738 60 589 215 738 b 710 496 554 738 690 660 l 638 496 b 407 675 619 618 521 675 b 136 367 256 675 136 558 l 136 356 b 407 51 136 164 254 51 b 649 251 528 51 631 121 l 717 251 b 407 -11 697 96 572 -11 "},"d":{"ha":850,"x_min":0,"x_max":0,"o":"m 386 -11 b 60 353 201 -11 60 122 l 60 364 b 397 738 60 588 206 738 b 663 565 540 738 621 656 l 663 1074 l 736 1074 l 736 0 l 663 0 l 663 168 b 386 -11 624 81 522 -11 m 393 51 b 664 358 540 51 664 158 l 664 369 b 404 675 664 569 556 675 b 136 367 249 675 136 563 l 136 356 b 393 51 136 157 249 51 "},"e":{"ha":769,"x_min":0,"x_max":0,"o":"m 404 -11 b 60 356 194 -11 60 138 l 60 367 b 393 738 60 586 199 738 b 711 383 568 738 711 624 l 711 357 l 136 357 b 404 51 139 163 232 51 b 632 203 525 51 607 101 l 706 203 b 404 -11 675 64 560 -11 m 635 417 b 393 675 628 593 535 675 b 139 417 253 675 153 575 "},"f":{"ha":463,"x_min":0,"x_max":0,"o":"m 146 664 l 36 664 l 36 726 l 146 726 l 146 857 b 351 1078 146 1008 231 1078 b 432 1065 386 1078 406 1074 l 432 1003 b 354 1015 411 1010 385 1015 b 219 864 274 1015 219 969 l 219 726 l 422 726 l 422 664 l 219 664 l 219 0 l 146 0 "},"g":{"ha":850,"x_min":0,"x_max":0,"o":"m 400 -261 b 75 -42 190 -261 93 -158 l 150 -42 b 399 -199 169 -135 247 -199 b 663 51 554 -199 663 -128 l 663 200 b 388 24 624 113 522 24 b 60 371 203 24 60 160 l 60 381 b 397 738 60 588 206 738 b 663 569 540 738 621 658 l 663 726 l 736 726 l 736 49 b 400 -261 735 -165 594 -261 m 394 86 b 664 375 542 86 664 193 l 664 386 b 404 675 664 569 556 675 b 136 383 249 675 136 564 l 136 372 b 394 86 136 192 250 86 "},"h":{"ha":810,"x_min":0,"x_max":0,"o":"m 114 1074 l 188 1074 l 188 585 b 444 738 221 664 315 738 b 703 447 599 738 703 654 l 703 0 l 629 0 l 629 451 b 428 674 629 606 557 674 b 188 440 307 674 188 593 l 188 0 l 114 0 "},"i":{"ha":307,"x_min":0,"x_max":0,"o":"m 117 726 l 190 726 l 190 0 l 117 0 m 153 882 b 100 935 124 882 100 906 b 153 986 100 963 124 986 b 204 935 182 986 204 963 b 153 882 204 906 182 882 "},"j":{"ha":307,"x_min":0,"x_max":0,"o":"m 10 -199 b 117 -72 92 -192 117 -150 l 117 726 l 190 726 l 190 -67 b 10 -261 190 -193 142 -256 m 153 882 b 100 935 124 882 100 906 b 153 986 100 963 124 986 b 204 935 182 986 204 963 b 153 882 204 906 182 882 "},"k":{"ha":676,"x_min":0,"x_max":0,"o":"m 114 1074 l 188 1074 l 188 385 l 542 726 l 629 726 l 275 388 l 653 0 l 561 0 l 188 385 l 188 0 l 114 0 "},"l":{"ha":308,"x_min":0,"x_max":0,"o":"m 117 1074 l 192 1074 l 192 0 l 117 0 "},"m":{"ha":1256,"x_min":0,"x_max":0,"o":"m 114 726 l 188 726 l 188 589 b 425 738 221 668 307 738 b 647 575 533 738 617 692 b 906 738 693 678 796 738 b 1149 454 1046 738 1149 661 l 1149 0 l 1075 0 l 1075 458 b 893 674 1075 613 1010 674 b 668 443 782 674 668 594 l 668 0 l 594 0 l 594 458 b 413 674 594 613 529 674 b 188 443 301 674 188 594 l 188 0 l 114 0 "},"n":{"ha":810,"x_min":0,"x_max":0,"o":"m 114 726 l 188 726 l 188 585 b 444 738 221 664 315 738 b 703 447 599 738 703 654 l 703 0 l 629 0 l 629 451 b 428 674 629 606 557 674 b 188 440 307 674 188 593 l 188 0 l 114 0 "},"o":{"ha":821,"x_min":0,"x_max":0,"o":"m 411 51 b 685 357 567 51 685 169 l 685 368 b 411 675 685 560 565 675 b 136 368 256 675 136 557 l 136 357 b 411 51 136 171 253 51 m 410 -11 b 60 357 213 -11 60 143 l 60 368 b 411 738 60 586 217 738 b 761 369 607 738 761 590 l 761 358 b 410 -11 761 139 606 -11 "},"p":{"ha":850,"x_min":0,"x_max":0,"o":"m 114 726 l 188 726 l 188 557 b 464 738 229 651 336 738 b 790 371 647 738 790 597 l 790 360 b 464 -11 790 132 651 -11 b 188 165 319 -11 226 76 l 188 -253 l 114 -253 m 458 51 b 714 357 611 51 714 163 l 714 368 b 457 675 714 568 596 675 b 186 368 315 675 186 568 l 186 357 b 458 51 186 158 307 51 "},"q":{"ha":850,"x_min":0,"x_max":0,"o":"m 663 168 b 386 -11 624 81 522 -11 b 60 353 201 -11 60 122 l 60 364 b 397 738 60 588 206 738 b 663 565 540 738 621 656 l 663 726 l 736 726 l 736 -253 l 663 -253 m 393 51 b 664 358 540 51 664 158 l 664 369 b 404 675 664 569 556 675 b 136 367 249 675 136 563 l 136 356 b 393 51 136 157 249 51 "},"r":{"ha":483,"x_min":0,"x_max":0,"o":"m 114 726 l 188 726 l 188 574 b 433 736 228 663 300 732 l 433 667 b 188 403 293 661 188 596 l 188 0 l 114 0 "},"s":{"ha":646,"x_min":0,"x_max":0,"o":"m 332 -12 b 53 217 161 -12 63 78 l 124 217 b 332 50 136 118 197 50 b 517 193 454 50 517 106 b 326 340 517 286 463 315 b 76 543 149 372 76 418 b 315 738 76 667 193 738 b 568 540 446 738 549 683 l 497 540 b 314 675 479 633 419 675 b 144 546 213 675 144 624 b 343 406 144 463 194 432 b 588 199 499 378 588 340 b 332 -12 588 76 497 -12 "},"t":{"ha":469,"x_min":0,"x_max":0,"o":"m 319 -10 b 142 175 204 -10 142 58 l 142 664 l 35 664 l 35 726 l 142 726 l 142 892 l 215 892 l 215 726 l 406 726 l 406 664 l 215 664 l 215 181 b 324 53 215 93 257 53 b 415 68 361 53 390 60 l 415 6 b 319 -10 392 -3 364 -10 "},"u":{"ha":804,"x_min":0,"x_max":0,"o":"m 363 -11 b 107 267 213 -11 107 67 l 107 726 l 181 726 l 181 271 b 379 53 181 117 253 53 b 617 285 497 53 617 132 l 617 726 l 690 726 l 690 0 l 617 0 l 617 139 b 363 -11 583 60 490 -11 "},"v":{"ha":719,"x_min":0,"x_max":0,"o":"m 35 726 l 115 726 l 363 74 l 608 726 l 683 726 l 410 0 l 314 0 "},"w":{"ha":1078,"x_min":0,"x_max":0,"o":"m 40 726 l 119 726 l 314 90 l 513 726 l 575 726 l 767 90 l 963 726 l 1038 726 l 808 0 l 724 0 l 543 608 l 350 0 l 267 0 "},"x":{"ha":710,"x_min":0,"x_max":0,"o":"m 310 375 l 57 726 l 144 726 l 354 431 l 561 726 l 643 726 l 394 381 l 669 0 l 582 0 l 351 325 l 121 0 l 40 0 "},"y":{"ha":706,"x_min":0,"x_max":0,"o":"m 322 63 l 35 726 l 114 726 l 363 147 l 594 726 l 669 726 l 267 -253 l 190 -253 "},"z":{"ha":658,"x_min":0,"x_max":0,"o":"m 33 13 l 506 664 l 75 664 l 75 726 l 621 726 l 621 713 l 153 65 l 611 65 l 611 0 l 33 0 "},"{":{"ha":504,"x_min":0,"x_max":0,"o":"m 446 -203 b 194 74 256 -203 156 -131 l 225 232 b 58 411 244 329 203 410 l 58 467 b 225 646 203 468 244 549 l 194 804 b 446 1081 156 1008 256 1081 l 446 1022 b 264 806 301 1021 233 976 l 296 639 b 165 439 317 522 258 461 b 296 239 258 417 317 356 l 264 72 b 446 -144 233 -99 301 -143 l 446 -203 "},"|":{"ha":335,"x_min":0,"x_max":0,"o":"m 136 1078 l 199 1078 l 199 -206 l 136 -206 "},"}":{"ha":504,"x_min":0,"x_max":0,"o":"m 58 -144 b 239 72 201 -143 271 -99 l 208 239 b 339 439 188 356 246 417 b 208 639 246 461 188 522 l 239 806 b 58 1022 271 976 201 1021 l 58 1081 b 310 804 249 1081 349 1008 l 278 646 b 446 467 260 549 300 468 l 446 411 b 278 232 300 410 260 329 l 310 74 b 58 -203 349 -131 249 -203 "},"~":{"ha":608,"x_min":0,"x_max":0,"o":"m 64 322 b 199 475 74 418 129 475 b 407 392 288 475 347 392 b 482 478 447 392 478 426 l 543 478 b 413 325 535 379 479 325 b 201 408 319 325 261 408 b 125 322 161 408 132 372 l 64 322 "},"Ä":{"ha":908,"x_min":0,"x_max":0,"o":"m 403 993 l 506 993 l 863 0 l 785 0 l 675 304 l 228 304 l 119 0 l 46 0 m 250 367 l 653 367 l 451 929 m 324 1094 b 272 1146 294 1094 272 1118 b 324 1196 272 1172 294 1196 b 374 1146 351 1196 374 1172 b 324 1094 374 1118 351 1094 m 574 1094 b 524 1146 546 1094 524 1118 b 574 1196 524 1172 546 1196 b 624 1146 601 1196 624 1172 b 574 1094 624 1118 601 1094 "},"Å":{"ha":908,"x_min":0,"x_max":0,"o":"m 403 993 l 506 993 l 863 0 l 785 0 l 675 304 l 228 304 l 119 0 l 46 0 m 250 367 l 653 367 l 451 929 m 449 1047 b 313 1181 375 1047 313 1108 b 449 1313 313 1253 375 1313 b 585 1181 524 1313 585 1253 b 449 1047 585 1108 524 1047 m 449 1092 b 533 1181 497 1092 533 1131 b 449 1269 533 1231 497 1269 b 364 1181 401 1269 364 1231 b 449 1092 364 1131 401 1092 "},"Ç":{"ha":1007,"x_min":0,"x_max":0,"o":"m 515 -294 b 382 -186 440 -294 389 -251 l 443 -186 b 513 -244 449 -218 472 -244 b 582 -183 554 -244 582 -221 b 519 -129 582 -143 550 -129 b 469 -140 496 -129 478 -136 l 433 -111 l 490 -10 b 74 490 232 10 74 206 l 74 501 b 535 1006 74 794 275 1006 b 936 694 740 1006 906 899 l 858 694 b 536 943 828 854 719 943 b 153 503 314 943 153 765 l 153 492 b 536 54 153 224 300 54 b 875 319 715 54 843 149 l 947 319 b 549 -11 911 110 756 -6 l 507 -85 b 647 -186 575 -69 647 -101 b 515 -294 647 -257 588 -294 "},"É":{"ha":786,"x_min":0,"x_max":0,"o":"m 465 1240 l 557 1240 l 435 1071 l 376 1071 m 128 993 l 699 993 l 699 929 l 206 929 l 206 542 l 606 542 l 606 478 l 206 478 l 206 64 l 724 64 l 724 0 l 128 0 "},"Ñ":{"ha":990,"x_min":0,"x_max":0,"o":"m 596 1075 b 425 1149 529 1075 474 1149 b 361 1074 393 1149 368 1121 l 304 1074 b 425 1211 315 1163 364 1211 b 596 1138 490 1211 546 1138 b 660 1213 626 1138 653 1165 l 715 1213 b 596 1075 704 1124 656 1075 m 128 993 l 233 993 l 789 107 l 789 993 l 863 993 l 863 0 l 771 0 l 203 907 l 203 0 l 128 0 "},"Ö":{"ha":1113,"x_min":0,"x_max":0,"o":"m 431 1094 b 379 1146 401 1094 379 1118 b 431 1196 379 1172 401 1196 b 481 1146 458 1196 481 1172 b 431 1094 481 1118 458 1094 m 681 1094 b 631 1146 653 1094 631 1118 b 681 1196 631 1172 653 1196 b 731 1146 708 1196 731 1172 b 681 1094 731 1118 708 1094 m 560 54 b 960 494 797 54 960 240 l 960 506 b 557 940 960 747 800 940 b 153 503 314 940 153 753 l 153 492 b 560 54 153 239 329 54 m 560 -11 b 74 490 276 -11 74 213 l 74 501 b 557 1004 74 783 278 1004 b 1040 504 838 1004 1040 783 l 1040 493 b 560 -11 1040 213 838 -11 "},"Ü":{"ha":947,"x_min":0,"x_max":0,"o":"m 469 -10 b 114 356 246 -10 114 118 l 114 993 l 190 993 l 190 364 b 471 56 190 151 286 56 b 757 382 661 56 757 147 l 757 993 l 835 993 l 835 371 b 469 -10 835 133 717 -10 m 349 1094 b 297 1146 319 1094 297 1118 b 349 1196 297 1172 319 1196 b 399 1146 376 1196 399 1172 b 349 1094 399 1118 376 1094 m 599 1094 b 549 1146 571 1094 549 1118 b 599 1196 549 1172 571 1196 b 649 1146 626 1196 649 1172 b 599 1094 649 1118 626 1094 "},"á":{"ha":735,"x_min":0,"x_max":0,"o":"m 307 -11 b 61 196 164 -11 61 58 b 401 415 61 364 222 415 l 553 415 l 553 481 b 369 675 553 617 497 675 b 165 521 260 675 182 628 l 93 521 b 372 738 110 674 235 738 b 626 481 524 738 626 665 l 626 0 l 553 0 l 553 111 b 307 -11 507 40 429 -11 m 313 49 b 553 235 446 49 553 126 l 553 358 l 404 358 b 135 196 253 358 135 326 b 313 49 135 103 193 49 m 428 1044 l 518 1044 l 390 840 l 333 840 "},"à":{"ha":735,"x_min":0,"x_max":0,"o":"m 307 -11 b 61 196 164 -11 61 58 b 401 415 61 364 222 415 l 553 415 l 553 481 b 369 675 553 617 497 675 b 165 521 260 675 182 628 l 93 521 b 372 738 110 674 235 738 b 626 481 524 738 626 665 l 626 0 l 553 0 l 553 111 b 307 -11 507 40 429 -11 m 313 49 b 553 235 446 49 553 126 l 553 358 l 404 358 b 135 196 253 358 135 326 b 313 49 135 103 193 49 m 224 1044 l 314 1044 l 408 840 l 351 840 "},"â":{"ha":735,"x_min":0,"x_max":0,"o":"m 307 -11 b 61 196 164 -11 61 58 b 401 415 61 364 222 415 l 553 415 l 553 481 b 369 675 553 617 497 675 b 165 521 260 675 182 628 l 93 521 b 372 738 110 674 235 738 b 626 481 524 738 626 665 l 626 0 l 553 0 l 553 111 b 307 -11 507 40 429 -11 m 313 49 b 553 235 446 49 553 126 l 553 358 l 404 358 b 135 196 253 358 135 326 b 313 49 135 103 193 49 m 331 1028 l 400 1028 l 550 840 l 492 840 l 364 965 l 235 840 l 178 840 "},"ä":{"ha":735,"x_min":0,"x_max":0,"o":"m 307 -11 b 61 196 164 -11 61 58 b 401 415 61 364 222 415 l 553 415 l 553 481 b 369 675 553 617 497 675 b 165 521 260 675 182 628 l 93 521 b 372 738 110 674 235 738 b 626 481 524 738 626 665 l 626 0 l 553 0 l 553 111 b 307 -11 507 40 429 -11 m 313 49 b 553 235 446 49 553 126 l 553 358 l 404 358 b 135 196 253 358 135 326 b 313 49 135 103 193 49 m 257 883 b 206 935 228 883 206 907 b 257 985 206 963 228 985 b 307 935 285 985 307 963 b 257 883 307 907 285 883 m 488 883 b 438 935 460 883 438 907 b 488 985 438 963 460 985 b 539 935 517 985 539 963 b 488 883 539 907 517 883 "},"ã":{"ha":735,"x_min":0,"x_max":0,"o":"m 307 -11 b 61 196 164 -11 61 58 b 401 415 61 364 222 415 l 553 415 l 553 481 b 369 675 553 617 497 675 b 165 521 260 675 182 628 l 93 521 b 372 738 110 674 235 738 b 626 481 524 738 626 665 l 626 0 l 553 0 l 553 111 b 307 -11 507 40 429 -11 m 313 49 b 553 235 446 49 553 126 l 553 358 l 404 358 b 135 196 253 358 135 326 b 313 49 135 103 193 49 m 458 856 b 286 929 392 856 335 929 b 224 856 257 929 231 901 l 167 856 b 288 993 178 943 226 993 b 458 919 353 993 410 919 b 522 993 488 919 515 946 l 578 993 b 458 856 567 906 518 856 "},"å":{"ha":735,"x_min":0,"x_max":0,"o":"m 307 -11 b 61 196 164 -11 61 58 b 401 415 61 364 222 415 l 553 415 l 553 481 b 369 675 553 617 497 675 b 165 521 260 675 182 628 l 93 521 b 372 738 110 674 235 738 b 626 481 524 738 626 665 l 626 0 l 553 0 l 553 111 b 307 -11 507 40 429 -11 m 313 49 b 553 235 446 49 553 126 l 553 358 l 404 358 b 135 196 253 358 135 326 b 313 49 135 103 193 49 m 372 879 b 457 967 421 879 457 917 b 372 1056 457 1018 421 1056 b 288 967 325 1056 288 1018 b 372 879 288 917 325 879 m 372 835 b 236 967 299 835 236 894 b 372 1100 236 1039 299 1100 b 508 967 447 1100 508 1039 b 372 835 508 894 447 835 "},"ç":{"ha":772,"x_min":0,"x_max":0,"o":"m 381 -294 b 247 -186 306 -294 254 -251 l 308 -186 b 378 -244 314 -218 338 -244 b 447 -183 419 -244 447 -221 b 385 -129 447 -143 415 -129 b 335 -140 361 -129 343 -136 l 299 -111 l 357 -7 b 60 356 186 15 60 154 l 60 367 b 407 738 60 589 215 738 b 710 496 554 738 690 660 l 638 496 b 407 675 619 618 521 675 b 136 367 256 675 136 558 l 136 356 b 407 51 136 164 254 51 b 649 251 528 51 631 121 l 717 251 b 414 -11 697 97 576 -7 l 372 -85 b 513 -186 440 -69 513 -101 b 381 -294 513 -257 453 -294 "},"é":{"ha":769,"x_min":0,"x_max":0,"o":"m 447 1044 l 538 1044 l 410 840 l 353 840 m 404 -11 b 60 356 194 -11 60 138 l 60 367 b 393 738 60 586 199 738 b 711 383 568 738 711 624 l 711 357 l 136 357 b 404 51 139 163 232 51 b 632 203 525 51 607 101 l 706 203 b 404 -11 675 64 560 -11 m 635 417 b 393 675 628 593 535 675 b 139 417 253 675 153 575 "},"è":{"ha":769,"x_min":0,"x_max":0,"o":"m 404 -11 b 60 356 194 -11 60 138 l 60 367 b 393 738 60 586 199 738 b 711 383 568 738 711 624 l 711 357 l 136 357 b 404 51 139 163 232 51 b 632 203 525 51 607 101 l 706 203 b 404 -11 675 64 560 -11 m 635 417 b 393 675 628 593 535 675 b 139 417 253 675 153 575 m 243 1044 l 333 1044 l 428 840 l 371 840 "},"ê":{"ha":769,"x_min":0,"x_max":0,"o":"m 358 1028 l 428 1028 l 578 840 l 519 840 l 392 965 l 263 840 l 206 840 m 404 -11 b 60 356 194 -11 60 138 l 60 367 b 393 738 60 586 199 738 b 711 383 568 738 711 624 l 711 357 l 136 357 b 404 51 139 163 232 51 b 632 203 525 51 607 101 l 706 203 b 404 -11 675 64 560 -11 m 635 417 b 393 675 628 593 535 675 b 139 417 253 675 153 575 "},"ë":{"ha":769,"x_min":0,"x_max":0,"o":"m 276 883 b 225 935 247 883 225 907 b 276 985 225 963 247 985 b 326 935 304 985 326 963 b 276 883 326 907 304 883 m 507 883 b 457 935 479 883 457 907 b 507 985 457 963 479 985 b 558 935 536 985 558 963 b 507 883 558 907 536 883 m 404 -11 b 60 356 194 -11 60 138 l 60 367 b 393 738 60 586 199 738 b 711 383 568 738 711 624 l 711 357 l 136 357 b 404 51 139 163 232 51 b 632 203 525 51 607 101 l 706 203 b 404 -11 675 64 560 -11 m 635 417 b 393 675 628 593 535 675 b 139 417 253 675 153 575 "},"í":{"ha":307,"x_min":0,"x_max":0,"o":"m 214 1044 l 304 1044 l 176 840 l 119 840 m 117 726 l 190 726 l 190 0 l 117 0 "},"ì":{"ha":307,"x_min":0,"x_max":0,"o":"m 117 726 l 190 726 l 190 0 l 117 0 m 1 1044 l 92 1044 l 186 840 l 129 840 "},"î":{"ha":307,"x_min":0,"x_max":0,"o":"m 121 1028 l 190 1028 l 340 840 l 282 840 l 154 965 l 25 840 l -32 840 m 117 726 l 190 726 l 190 0 l 117 0 "},"ï":{"ha":307,"x_min":0,"x_max":0,"o":"m 50 883 b 0 935 22 883 0 907 b 50 985 0 963 22 985 b 101 935 78 985 101 963 b 50 883 101 907 78 883 m 257 883 b 206 935 229 883 206 907 b 257 985 206 963 229 985 b 307 935 285 985 307 963 b 257 883 307 907 285 883 m 117 726 l 190 726 l 190 0 l 117 0 "},"ñ":{"ha":810,"x_min":0,"x_max":0,"o":"m 114 726 l 188 726 l 188 585 b 444 738 221 664 315 738 b 703 447 599 738 703 654 l 703 0 l 629 0 l 629 451 b 428 674 629 606 557 674 b 188 440 307 674 188 593 l 188 0 l 114 0 m 489 856 b 317 929 422 856 365 929 b 254 856 288 929 261 901 l 197 856 b 318 993 208 943 257 993 b 489 919 383 993 440 919 b 553 993 518 919 546 946 l 608 993 b 489 856 597 906 549 856 "},"ó":{"ha":821,"x_min":0,"x_max":0,"o":"m 465 1044 l 556 1044 l 428 840 l 371 840 m 411 51 b 685 357 567 51 685 169 l 685 368 b 411 675 685 560 565 675 b 136 368 256 675 136 557 l 136 357 b 411 51 136 171 253 51 m 410 -11 b 60 357 213 -11 60 143 l 60 368 b 411 738 60 586 217 738 b 761 369 607 738 761 590 l 761 358 b 410 -11 761 139 606 -11 "},"ò":{"ha":821,"x_min":0,"x_max":0,"o":"m 411 51 b 685 357 567 51 685 169 l 685 368 b 411 675 685 560 565 675 b 136 368 256 675 136 557 l 136 357 b 411 51 136 171 253 51 m 410 -11 b 60 357 213 -11 60 143 l 60 368 b 411 738 60 586 217 738 b 761 369 607 738 761 590 l 761 358 b 410 -11 761 139 606 -11 m 261 1044 l 351 1044 l 446 840 l 389 840 "},"ô":{"ha":821,"x_min":0,"x_max":0,"o":"m 376 1028 l 446 1028 l 596 840 l 538 840 l 410 965 l 281 840 l 224 840 m 411 51 b 685 357 567 51 685 169 l 685 368 b 411 675 685 560 565 675 b 136 368 256 675 136 557 l 136 357 b 411 51 136 171 253 51 m 410 -11 b 60 357 213 -11 60 143 l 60 368 b 411 738 60 586 217 738 b 761 369 607 738 761 590 l 761 358 b 410 -11 761 139 606 -11 "},"ö":{"ha":821,"x_min":0,"x_max":0,"o":"m 294 883 b 243 935 265 883 243 907 b 294 985 243 963 265 985 b 344 935 322 985 344 963 b 294 883 344 907 322 883 m 525 883 b 475 935 497 883 475 907 b 525 985 475 963 497 985 b 576 935 554 985 576 963 b 525 883 576 907 554 883 m 411 51 b 685 357 567 51 685 169 l 685 368 b 411 675 685 560 565 675 b 136 368 256 675 136 557 l 136 357 b 411 51 136 171 253 51 m 410 -11 b 60 357 213 -11 60 143 l 60 368 b 411 738 60 586 217 738 b 761 369 607 738 761 590 l 761 358 b 410 -11 761 139 606 -11 "},"õ":{"ha":821,"x_min":0,"x_max":0,"o":"m 411 51 b 685 357 567 51 685 169 l 685 368 b 411 675 685 560 565 675 b 136 368 256 675 136 557 l 136 357 b 411 51 136 171 253 51 m 410 -11 b 60 357 213 -11 60 143 l 60 368 b 411 738 60 586 217 738 b 761 369 607 738 761 590 l 761 358 b 410 -11 761 139 606 -11 m 496 856 b 324 929 429 856 372 929 b 261 856 294 929 268 901 l 204 856 b 325 993 215 943 264 993 b 496 919 390 993 447 919 b 560 993 525 919 553 946 l 615 993 b 496 856 604 906 556 856 "},"ú":{"ha":804,"x_min":0,"x_max":0,"o":"m 457 1044 l 547 1044 l 419 840 l 363 840 m 363 -11 b 107 267 213 -11 107 67 l 107 726 l 181 726 l 181 271 b 379 53 181 117 253 53 b 617 285 497 53 617 132 l 617 726 l 690 726 l 690 0 l 617 0 l 617 139 b 363 -11 583 60 490 -11 "},"ù":{"ha":804,"x_min":0,"x_max":0,"o":"m 363 -11 b 107 267 213 -11 107 67 l 107 726 l 181 726 l 181 271 b 379 53 181 117 253 53 b 617 285 497 53 617 132 l 617 726 l 690 726 l 690 0 l 617 0 l 617 139 b 363 -11 583 60 490 -11 m 253 1044 l 343 1044 l 438 840 l 381 840 "},"û":{"ha":804,"x_min":0,"x_max":0,"o":"m 368 1028 l 438 1028 l 588 840 l 529 840 l 401 965 l 272 840 l 215 840 m 363 -11 b 107 267 213 -11 107 67 l 107 726 l 181 726 l 181 271 b 379 53 181 117 253 53 b 617 285 497 53 617 132 l 617 726 l 690 726 l 690 0 l 617 0 l 617 139 b 363 -11 583 60 490 -11 "},"ü":{"ha":804,"x_min":0,"x_max":0,"o":"m 286 883 b 235 935 257 883 235 907 b 286 985 235 963 257 985 b 336 935 314 985 336 963 b 286 883 336 907 314 883 m 517 883 b 467 935 489 883 467 907 b 517 985 467 963 489 985 b 568 935 546 985 568 963 b 517 883 568 907 546 883 m 363 -11 b 107 267 213 -11 107 67 l 107 726 l 181 726 l 181 271 b 379 53 181 117 253 53 b 617 285 497 53 617 132 l 617 726 l 690 726 l 690 0 l 617 0 l 617 139 b 363 -11 583 60 490 -11 "},"†":{"ha":485,"x_min":0,"x_max":0,"o":"m 208 744 l 44 744 l 44 806 l 208 806 l 208 993 l 276 993 l 276 806 l 440 806 l 440 744 l 276 744 l 276 307 l 208 307 "},"°":{"ha":565,"x_min":0,"x_max":0,"o":"m 283 647 b 428 799 367 647 428 714 b 283 951 428 883 367 951 b 136 799 199 951 136 883 b 283 647 136 714 199 647 m 283 593 b 71 799 165 593 71 686 b 283 1006 71 913 165 1006 b 494 799 400 1006 494 913 b 283 593 494 686 400 593 "},"¢":{"ha":768,"x_min":0,"x_max":0,"o":"m 375 -10 b 60 356 194 4 60 140 l 60 367 b 375 736 60 582 199 722 l 375 874 l 431 874 l 431 736 b 710 496 568 728 692 650 l 638 496 b 431 674 621 608 535 665 l 431 53 b 649 251 540 61 632 129 l 717 251 b 431 -10 697 104 583 0 l 431 -187 l 375 -187 m 136 356 b 375 53 136 171 238 65 l 375 674 b 136 367 239 660 136 550 l 136 356 "},"£":{"ha":818,"x_min":0,"x_max":0,"o":"m 68 511 l 167 511 b 133 721 149 574 133 640 b 433 1004 133 890 261 1004 b 726 750 613 1004 713 901 l 651 750 b 433 939 632 871 571 939 b 213 721 303 939 213 850 b 244 511 213 640 228 575 l 563 511 l 563 454 l 260 454 b 286 264 274 397 286 338 b 261 151 286 222 276 185 b 557 56 365 135 468 56 b 700 200 642 56 694 101 l 767 200 b 564 -11 758 74 683 -11 b 233 90 436 -11 328 90 b 125 0 168 90 132 49 l 58 0 b 189 150 65 61 106 133 b 217 265 206 182 217 219 b 183 454 217 333 201 393 l 68 454 "},"§":{"ha":743,"x_min":0,"x_max":0,"o":"m 369 -190 b 113 22 224 -190 119 -114 l 189 22 b 368 -126 197 -71 258 -126 b 535 22 481 -126 535 -64 b 321 199 535 119 485 157 b 64 426 168 239 64 292 b 242 617 64 524 140 592 b 144 794 179 656 144 703 b 379 1006 144 919 254 1006 b 615 803 521 1006 607 932 l 540 803 b 381 942 532 890 489 942 b 217 796 282 942 217 885 b 419 622 217 704 263 667 b 679 392 574 579 679 531 b 510 203 679 297 613 231 b 607 24 575 165 607 110 b 369 -190 607 -100 510 -190 m 451 235 b 606 388 551 257 606 306 b 404 553 606 481 533 515 l 297 585 b 138 432 206 568 138 515 b 343 267 138 338 213 303 l 451 235 "},"•":{"ha":439,"x_min":0,"x_max":0,"o":"m 219 276 b 72 424 136 276 72 343 b 219 571 72 506 136 571 b 367 424 304 571 367 506 b 219 276 367 343 304 276 "},"¶":{"ha":776,"x_min":0,"x_max":0,"o":"m 376 490 l 357 490 b 63 736 185 490 63 572 b 357 993 63 910 190 993 l 646 993 l 646 -139 l 582 -139 l 582 940 l 439 940 l 439 -139 l 376 -139 "},"ß":{"ha":792,"x_min":0,"x_max":0,"o":"m 444 -10 b 314 13 388 -10 343 1 l 314 76 b 442 53 347 63 389 53 b 658 289 549 53 658 104 l 658 299 b 358 576 658 463 531 581 l 358 640 b 579 838 514 638 579 740 l 579 843 b 390 1017 579 949 514 1017 b 188 797 264 1017 188 931 l 188 0 l 114 0 l 114 794 b 390 1078 114 968 235 1078 b 650 843 551 1078 650 979 l 650 838 b 472 613 650 738 585 644 b 735 299 615 583 735 463 l 735 290 b 444 -10 735 64 590 -10 "},"®":{"ha":714,"x_min":0,"x_max":0,"o":"m 254 863 l 358 863 b 474 769 428 863 474 832 l 474 768 b 403 683 474 719 446 693 l 493 546 l 436 546 l 351 675 l 306 675 l 306 546 l 254 546 m 357 714 b 424 767 401 714 424 732 l 424 768 b 357 822 424 807 400 822 l 306 822 l 306 714 m 357 431 b 622 699 507 431 622 543 b 357 968 622 854 510 968 b 92 697 206 968 92 853 b 357 431 92 540 208 431 m 357 392 b 49 697 186 392 49 524 b 357 1006 49 868 185 1006 b 665 699 532 1006 665 869 b 357 392 665 525 529 392 "},"©":{"ha":1172,"x_min":0,"x_max":0,"o":"m 589 210 b 318 494 421 210 318 324 l 318 504 b 588 789 318 674 436 789 b 825 604 711 789 808 726 l 753 604 b 588 731 738 686 681 731 b 393 504 474 731 393 643 l 393 496 b 589 269 393 356 468 269 b 763 407 681 269 747 318 l 831 407 b 589 210 814 279 717 210 m 585 32 b 1044 499 835 32 1044 228 b 588 961 1044 765 842 961 b 128 496 333 961 128 764 b 585 32 128 225 339 32 m 585 -12 b 76 496 303 -12 76 208 b 588 1006 76 779 301 1006 b 1096 499 876 1006 1096 781 b 585 -12 1096 210 871 -12 "},"™":{"ha":938,"x_min":0,"x_max":0,"o":"m 450 993 l 525 993 l 665 649 l 804 993 l 879 993 l 879 556 l 826 556 l 826 926 l 672 556 l 653 556 l 499 926 l 499 556 l 450 556 m 178 950 l 42 950 l 42 993 l 367 993 l 367 950 l 232 950 l 232 556 l 178 556 "},"´":{"ha":556,"x_min":0,"x_max":0,"o":"m 338 1044 l 428 1044 l 300 840 l 243 840 "},"¨":{"ha":556,"x_min":0,"x_max":0,"o":"m 163 883 b 111 935 133 883 111 907 b 163 985 111 963 133 985 b 213 935 190 985 213 963 b 163 883 213 907 190 883 m 393 883 b 343 935 365 883 343 907 b 393 985 343 963 365 985 b 444 935 422 985 444 963 b 393 883 444 907 422 883 "},"≠":{"ha":672,"x_min":0,"x_max":0,"o":"m 56 592 l 368 592 l 438 754 l 506 754 l 435 592 l 617 592 l 617 528 l 408 528 l 336 360 l 617 360 l 617 296 l 308 296 l 239 133 l 171 133 l 240 296 l 56 296 l 56 360 l 268 360 l 340 528 l 56 528 "},"Æ":{"ha":1314,"x_min":0,"x_max":0,"o":"m 544 993 l 1226 993 l 1226 929 l 733 929 l 733 542 l 1133 542 l 1133 478 l 733 478 l 733 64 l 1251 64 l 1251 0 l 656 0 l 656 306 l 272 306 l 119 0 l 40 0 m 303 367 l 656 367 l 656 929 l 585 929 "},"Ø":{"ha":1113,"x_min":0,"x_max":0,"o":"m 57 7 l 192 156 b 74 490 117 244 74 361 l 74 501 b 557 1004 74 783 278 1004 b 864 896 676 1004 782 964 l 982 1026 l 1022 985 l 906 857 b 1040 504 990 767 1040 642 l 1040 493 b 560 -11 1040 213 838 -11 b 232 114 429 -11 315 36 l 99 -33 m 560 54 b 960 494 797 54 960 240 l 960 506 b 858 806 960 625 924 729 l 279 165 b 560 54 351 94 449 54 m 153 492 b 240 210 153 379 185 283 l 818 846 b 557 940 751 906 661 940 b 153 503 314 940 153 753 l 153 492 "},"±":{"ha":708,"x_min":0,"x_max":0,"o":"m 321 458 l 50 458 l 50 521 l 321 521 l 321 797 l 388 797 l 388 521 l 658 521 l 658 458 l 388 458 l 388 182 l 321 182 m 50 63 l 658 63 l 658 0 l 50 0 "},"≤":{"ha":689,"x_min":0,"x_max":0,"o":"m 71 447 l 71 465 l 604 750 l 604 678 l 182 456 l 604 235 l 604 163 m 71 63 l 604 63 l 604 0 l 71 0 "},"≥":{"ha":689,"x_min":0,"x_max":0,"o":"m 85 235 l 508 456 l 85 678 l 85 750 l 618 465 l 618 447 l 85 163 m 85 63 l 618 63 l 618 0 l 85 0 "},"¥":{"ha":761,"x_min":0,"x_max":0,"o":"m 101 478 l 339 478 l 39 993 l 122 993 l 393 521 l 647 993 l 722 993 l 440 478 l 678 478 l 678 424 l 428 424 l 428 289 l 678 289 l 678 235 l 428 235 l 428 0 l 353 0 l 353 235 l 101 235 l 101 289 l 353 289 l 353 424 l 101 424 "},"ª":{"ha":581,"x_min":0,"x_max":0,"o":"m 244 419 b 51 582 133 419 51 474 b 321 756 51 714 176 756 l 433 756 l 433 801 b 296 946 433 901 392 946 b 146 835 214 946 160 910 l 76 835 b 300 1004 89 951 188 1004 b 503 801 422 1004 503 946 l 503 429 l 433 429 l 433 513 b 244 419 399 460 339 419 m 256 475 b 433 614 354 475 433 532 l 433 704 l 324 704 b 122 583 208 704 122 679 b 256 475 122 514 165 475 "},"º":{"ha":660,"x_min":0,"x_max":0,"o":"m 331 478 b 533 708 447 478 533 567 l 533 717 b 331 944 533 858 447 944 b 126 715 215 944 126 856 l 126 707 b 331 478 126 568 213 478 m 329 419 b 54 707 174 419 54 538 l 54 715 b 331 1003 54 889 176 1003 b 606 717 486 1003 606 892 l 606 708 b 329 419 606 532 485 419 "},"æ":{"ha":1246,"x_min":0,"x_max":0,"o":"m 886 -11 b 596 171 747 -11 646 58 b 307 -11 549 49 442 -11 b 61 194 164 -11 61 57 b 399 415 61 364 219 415 l 556 415 l 556 479 b 369 675 556 615 496 675 b 165 521 260 675 182 628 l 93 521 b 372 738 110 674 236 738 b 610 579 492 738 579 692 b 878 738 664 678 758 738 b 1188 383 1049 738 1188 625 l 1188 358 l 628 358 b 888 51 631 164 718 51 b 1108 203 1006 51 1085 101 l 1182 203 b 886 -11 1153 64 1038 -11 m 314 49 b 556 251 446 49 556 126 l 556 358 l 400 358 b 135 194 249 358 135 325 b 314 49 135 101 193 49 m 1113 415 b 878 675 1106 593 1017 675 b 629 415 740 675 643 574 "},"ø":{"ha":821,"x_min":0,"x_max":0,"o":"m 43 0 l 143 111 b 60 357 90 175 60 260 l 60 368 b 411 738 60 586 217 738 b 636 657 497 738 575 708 l 725 757 l 765 722 l 674 621 b 761 369 728 557 761 471 l 761 358 b 410 -11 761 139 606 -11 b 181 72 321 -11 242 19 l 85 -35 m 411 51 b 685 357 567 51 685 169 l 685 368 b 626 568 685 449 663 517 l 225 122 b 411 51 274 76 338 51 m 136 357 b 190 164 136 279 156 214 l 590 607 b 411 675 543 651 481 675 b 136 368 256 675 136 557 l 136 357 "},"¿":{"ha":663,"x_min":0,"x_max":0,"o":"m 401 503 b 263 254 401 392 339 331 b 143 51 197 190 143 139 b 325 -111 143 -43 201 -111 b 539 97 446 -111 529 -32 l 610 97 b 324 -174 600 -65 486 -174 b 68 49 149 -174 68 -71 b 210 293 68 161 136 218 b 335 508 281 364 335 415 l 335 582 l 401 582 m 369 838 b 428 779 401 838 428 811 b 369 719 428 746 401 719 b 310 779 336 719 310 746 b 369 838 310 811 336 838 "},"¡":{"ha":378,"x_min":0,"x_max":0,"o":"m 158 582 l 217 582 l 229 -162 l 147 -162 m 189 719 b 131 779 157 719 131 746 b 189 838 131 811 157 838 b 249 779 222 838 249 811 b 189 719 249 746 222 719 "},"ƒ":{"ha":533,"x_min":0,"x_max":0,"o":"m 40 560 l 172 560 l 207 786 b 431 1006 229 940 311 1006 b 525 990 472 1006 500 999 l 525 926 b 432 943 504 935 474 943 b 279 783 349 943 296 894 l 244 560 l 446 560 l 446 499 l 236 499 l 121 -253 l 47 -253 l 163 499 l 40 499 "},"≈":{"ha":688,"x_min":0,"x_max":0,"o":"m 56 250 b 199 392 65 338 119 392 b 490 318 306 392 403 318 b 574 394 538 318 568 350 l 632 394 b 490 253 622 306 568 253 b 197 326 382 253 285 326 b 114 250 150 326 121 294 l 56 250 m 56 482 b 199 624 65 569 119 624 b 490 549 306 624 403 549 b 574 626 538 549 568 582 l 632 626 b 490 485 622 538 568 485 b 197 558 382 485 285 558 b 114 482 150 558 121 526 l 56 482 "},"«":{"ha":622,"x_min":0,"x_max":0,"o":"m 75 363 l 263 610 l 338 610 l 154 363 l 338 115 l 263 115 m 294 363 l 482 610 l 557 610 l 374 363 l 557 115 l 482 115 "},"»":{"ha":622,"x_min":0,"x_max":0,"o":"m 249 363 l 65 610 l 140 610 l 328 363 l 140 115 l 65 115 m 468 363 l 285 610 l 360 610 l 547 363 l 360 115 l 285 115 "},"…":{"ha":968,"x_min":0,"x_max":0,"o":"m 158 -7 b 100 51 126 -7 100 19 b 158 111 100 85 126 111 b 218 51 192 111 218 85 b 158 -7 218 19 192 -7 m 483 -7 b 425 51 451 -7 425 19 b 483 111 425 85 451 111 b 543 51 517 111 543 85 b 483 -7 543 19 517 -7 m 808 -7 b 750 51 776 -7 750 19 b 808 111 750 85 776 111 b 868 51 842 111 868 85 b 808 -7 868 19 842 -7 "}," ":{"ha":389,"x_min":0,"x_max":0,"o":""},"À":{"ha":908,"x_min":0,"x_max":0,"o":"m 403 993 l 506 993 l 863 0 l 785 0 l 675 304 l 228 304 l 119 0 l 46 0 m 250 367 l 653 367 l 451 929 m 306 1240 l 397 1240 l 486 1071 l 428 1071 "},"Ã":{"ha":908,"x_min":0,"x_max":0,"o":"m 403 993 l 506 993 l 863 0 l 785 0 l 675 304 l 228 304 l 119 0 l 46 0 m 250 367 l 653 367 l 451 929 m 535 1075 b 364 1149 468 1075 413 1149 b 300 1074 332 1149 307 1121 l 243 1074 b 364 1211 254 1163 303 1211 b 535 1138 429 1211 485 1138 b 599 1213 565 1138 592 1165 l 654 1213 b 535 1075 643 1124 594 1075 "},"Õ":{"ha":1113,"x_min":0,"x_max":0,"o":"m 642 1075 b 471 1149 575 1075 519 1149 b 407 1074 439 1149 414 1121 l 350 1074 b 471 1211 361 1163 410 1211 b 642 1138 536 1211 592 1138 b 706 1213 672 1138 699 1165 l 761 1213 b 642 1075 750 1124 701 1075 m 560 54 b 960 494 797 54 960 240 l 960 506 b 557 940 960 747 800 940 b 153 503 314 940 153 753 l 153 492 b 560 54 153 239 329 54 m 560 -11 b 74 490 276 -11 74 213 l 74 501 b 557 1004 74 783 278 1004 b 1040 504 838 1004 1040 783 l 1040 493 b 560 -11 1040 213 838 -11 "},"Œ":{"ha":1328,"x_min":0,"x_max":0,"o":"m 74 499 b 571 993 74 774 231 993 l 1240 993 l 1240 929 l 768 929 l 768 542 l 1147 542 l 1147 478 l 768 478 l 768 64 l 1265 64 l 1265 0 l 568 0 b 74 488 239 0 74 211 l 74 499 m 574 929 b 153 499 290 929 153 751 l 153 488 b 575 64 153 243 282 64 l 692 64 l 692 929 "},"œ":{"ha":1393,"x_min":0,"x_max":0,"o":"m 410 -11 b 60 357 213 -11 60 143 l 60 368 b 411 738 60 586 217 738 b 722 528 554 738 671 658 b 1018 738 769 657 876 738 b 1335 383 1193 738 1335 624 l 1335 357 l 760 357 b 1029 51 764 163 857 51 b 1256 203 1149 51 1232 101 l 1329 203 b 1028 -11 1300 64 1183 -11 b 721 199 874 -11 767 69 b 410 -11 669 69 553 -11 m 411 51 b 685 357 567 51 685 169 l 685 368 b 411 675 685 560 565 675 b 136 368 256 675 136 557 l 136 357 b 411 51 136 171 253 51 m 1260 417 b 1018 675 1253 593 1158 675 b 763 417 878 675 776 575 "},"–":{"ha":699,"x_min":0,"x_max":0,"o":"m 64 417 l 635 417 l 635 354 l 64 354 "},"—":{"ha":1207,"x_min":0,"x_max":0,"o":"m 64 417 l 1143 417 l 1143 354 l 64 354 "},"“":{"ha":492,"x_min":0,"x_max":0,"o":"m 58 765 l 186 1003 l 233 981 l 129 733 m 253 765 l 381 1003 l 428 981 l 324 733 "},"”":{"ha":492,"x_min":0,"x_max":0,"o":"m 64 757 l 168 1003 l 239 972 l 111 733 m 257 757 l 363 1003 l 433 972 l 306 733 "},"‘":{"ha":297,"x_min":0,"x_max":0,"o":"m 58 765 l 186 1003 l 233 981 l 129 733 "},"’":{"ha":297,"x_min":0,"x_max":0,"o":"m 64 757 l 168 1003 l 239 972 l 111 733 "},"÷":{"ha":708,"x_min":0,"x_max":0,"o":"m 354 169 b 294 229 321 169 294 196 b 354 288 294 261 321 288 b 413 229 386 288 413 261 b 354 169 413 196 386 169 m 50 507 l 658 507 l 658 443 l 50 443 m 354 663 b 294 722 321 663 294 689 b 354 781 294 754 321 781 b 413 722 386 781 413 754 b 354 663 413 689 386 663 "},"ÿ":{"ha":706,"x_min":0,"x_max":0,"o":"m 322 63 l 35 726 l 114 726 l 363 147 l 594 726 l 669 726 l 267 -253 l 190 -253 m 244 883 b 193 935 215 883 193 907 b 244 985 193 963 215 985 b 294 935 272 985 294 963 b 244 883 294 907 272 883 m 475 883 b 425 935 447 883 425 907 b 475 985 425 963 447 985 b 526 935 504 985 526 963 b 475 883 526 907 504 883 "},"Ÿ":{"ha":803,"x_min":0,"x_max":0,"o":"m 372 442 l 32 993 l 118 993 l 413 507 l 693 993 l 771 993 l 450 440 l 450 0 l 372 0 m 281 1094 b 229 1146 251 1094 229 1118 b 281 1196 229 1172 251 1196 b 331 1146 308 1196 331 1172 b 281 1094 331 1118 308 1094 m 531 1094 b 481 1146 503 1094 481 1118 b 531 1196 481 1172 503 1196 b 581 1146 558 1196 581 1172 b 531 1094 581 1118 558 1094 "},"⁄":{"ha":157,"x_min":0,"x_max":0,"o":"m 406 993 l 468 993 l -249 0 l -311 0 "},"€":{"ha":913,"x_min":0,"x_max":0,"o":"m 44 617 l 140 617 b 504 1004 156 840 283 1004 b 832 717 694 1004 810 894 l 758 717 b 504 942 738 858 651 942 b 217 617 331 942 229 814 l 567 617 l 557 564 l 215 564 l 215 428 l 531 428 l 521 375 l 217 375 b 506 54 229 176 328 54 b 772 299 660 54 750 144 l 844 299 b 506 -11 821 106 699 -11 b 140 375 286 -11 156 147 l 44 375 l 44 428 l 139 428 l 139 564 l 44 564 "},"‹":{"ha":403,"x_min":0,"x_max":0,"o":"m 75 363 l 263 610 l 338 610 l 154 363 l 338 115 l 263 115 "},"›":{"ha":403,"x_min":0,"x_max":0,"o":"m 249 363 l 65 610 l 140 610 l 328 363 l 140 115 l 65 115 "},"‡":{"ha":485,"x_min":0,"x_max":0,"o":"m 208 744 l 44 744 l 44 806 l 208 806 l 208 993 l 276 993 l 276 806 l 440 806 l 440 744 l 276 744 l 276 556 l 440 556 l 440 494 l 276 494 l 276 307 l 208 307 l 208 494 l 44 494 l 44 556 l 208 556 "},"·":{"ha":318,"x_min":0,"x_max":0,"o":"m 158 390 b 100 450 126 390 100 417 b 158 508 100 482 126 508 b 218 450 192 508 218 482 b 158 390 218 417 192 390 "},"‚":{"ha":297,"x_min":0,"x_max":0,"o":"m 64 -97 l 168 149 l 239 118 l 111 -121 "},"„":{"ha":492,"x_min":0,"x_max":0,"o":"m 64 -97 l 168 149 l 239 118 l 111 -121 m 257 -97 l 363 149 l 433 118 l 306 -121 "},"‰":{"ha":1540,"x_min":0,"x_max":0,"o":"m 269 619 b 415 781 351 619 415 679 b 269 942 415 879 353 942 b 124 779 189 942 124 882 b 269 619 124 678 189 619 m 269 561 b 56 778 160 561 56 649 b 269 1000 56 910 157 1000 b 483 781 386 1000 483 910 b 269 561 483 649 382 561 m 806 993 l 875 993 l 243 0 l 174 0 m 774 49 b 919 210 856 49 919 108 b 774 371 919 308 857 371 b 628 208 692 371 628 311 b 774 49 628 107 693 49 m 774 -10 b 560 207 663 -10 560 78 b 774 429 560 339 660 429 b 988 210 889 429 988 339 b 774 -10 988 78 885 -10 m 1271 49 b 1417 210 1353 49 1417 108 b 1271 371 1417 308 1354 371 b 1125 208 1190 371 1125 311 b 1271 49 1125 107 1190 49 m 1271 -10 b 1058 207 1161 -10 1058 78 b 1271 429 1058 339 1158 429 b 1485 210 1388 429 1485 339 b 1271 -10 1485 78 1383 -10 "},"Â":{"ha":908,"x_min":0,"x_max":0,"o":"m 403 993 l 506 993 l 863 0 l 785 0 l 675 304 l 228 304 l 119 0 l 46 0 m 250 367 l 653 367 l 451 929 m 415 1240 l 485 1240 l 635 1071 l 576 1071 l 449 1179 l 319 1071 l 263 1071 "},"Ê":{"ha":786,"x_min":0,"x_max":0,"o":"m 382 1240 l 451 1240 l 601 1071 l 543 1071 l 415 1179 l 286 1071 l 229 1071 m 128 993 l 699 993 l 699 929 l 206 929 l 206 542 l 606 542 l 606 478 l 206 478 l 206 64 l 724 64 l 724 0 l 128 0 "},"Á":{"ha":908,"x_min":0,"x_max":0,"o":"m 403 993 l 506 993 l 863 0 l 785 0 l 675 304 l 228 304 l 119 0 l 46 0 m 250 367 l 653 367 l 451 929 m 499 1240 l 590 1240 l 468 1071 l 410 1071 "},"Ë":{"ha":786,"x_min":0,"x_max":0,"o":"m 128 993 l 699 993 l 699 929 l 206 929 l 206 542 l 606 542 l 606 478 l 206 478 l 206 64 l 724 64 l 724 0 l 128 0 m 290 1094 b 239 1146 261 1094 239 1118 b 290 1196 239 1172 261 1196 b 340 1146 318 1196 340 1172 b 290 1094 340 1118 318 1094 m 540 1094 b 490 1146 513 1094 490 1118 b 540 1196 490 1172 513 1196 b 590 1146 568 1196 590 1172 b 540 1094 590 1118 568 1094 "},"È":{"ha":786,"x_min":0,"x_max":0,"o":"m 272 1240 l 364 1240 l 453 1071 l 394 1071 m 128 993 l 699 993 l 699 929 l 206 929 l 206 542 l 606 542 l 606 478 l 206 478 l 206 64 l 724 64 l 724 0 l 128 0 "},"Í":{"ha":347,"x_min":0,"x_max":0,"o":"m 135 993 l 213 993 l 213 0 l 135 0 m 224 1240 l 315 1240 l 193 1071 l 135 1071 "},"Î":{"ha":347,"x_min":0,"x_max":0,"o":"m 135 993 l 213 993 l 213 0 l 135 0 m 140 1240 l 210 1240 l 360 1071 l 301 1071 l 174 1179 l 44 1071 l -12 1071 "},"Ï":{"ha":347,"x_min":0,"x_max":0,"o":"m 135 993 l 213 993 l 213 0 l 135 0 m 49 1094 b -3 1146 19 1094 -3 1118 b 49 1196 -3 1172 19 1196 b 99 1146 76 1196 99 1172 b 49 1094 99 1118 76 1094 m 299 1094 b 249 1146 271 1094 249 1118 b 299 1196 249 1172 271 1196 b 349 1146 326 1196 349 1172 b 299 1094 349 1118 326 1094 "},"Ì":{"ha":347,"x_min":0,"x_max":0,"o":"m 135 993 l 213 993 l 213 0 l 135 0 m 31 1240 l 122 1240 l 211 1071 l 153 1071 "},"Ó":{"ha":1113,"x_min":0,"x_max":0,"o":"m 606 1240 l 697 1240 l 575 1071 l 517 1071 m 560 54 b 960 494 797 54 960 240 l 960 506 b 557 940 960 747 800 940 b 153 503 314 940 153 753 l 153 492 b 560 54 153 239 329 54 m 560 -11 b 74 490 276 -11 74 213 l 74 501 b 557 1004 74 783 278 1004 b 1040 504 838 1004 1040 783 l 1040 493 b 560 -11 1040 213 838 -11 "},"Ô":{"ha":1113,"x_min":0,"x_max":0,"o":"m 522 1240 l 592 1240 l 742 1071 l 683 1071 l 556 1179 l 426 1071 l 369 1071 m 560 54 b 960 494 797 54 960 240 l 960 506 b 557 940 960 747 800 940 b 153 503 314 940 153 753 l 153 492 b 560 54 153 239 329 54 m 560 -11 b 74 490 276 -11 74 213 l 74 501 b 557 1004 74 783 278 1004 b 1040 504 838 1004 1040 783 l 1040 493 b 560 -11 1040 213 838 -11 "},"Ò":{"ha":1113,"x_min":0,"x_max":0,"o":"m 413 1240 l 504 1240 l 593 1071 l 535 1071 m 560 54 b 960 494 797 54 960 240 l 960 506 b 557 940 960 747 800 940 b 153 503 314 940 153 753 l 153 492 b 560 54 153 239 329 54 m 560 -11 b 74 490 276 -11 74 213 l 74 501 b 557 1004 74 783 278 1004 b 1040 504 838 1004 1040 783 l 1040 493 b 560 -11 1040 213 838 -11 "},"Ú":{"ha":947,"x_min":0,"x_max":0,"o":"m 524 1240 l 615 1240 l 493 1071 l 435 1071 m 469 -10 b 114 356 246 -10 114 118 l 114 993 l 190 993 l 190 364 b 471 56 190 151 286 56 b 757 382 661 56 757 147 l 757 993 l 835 993 l 835 371 b 469 -10 835 133 717 -10 "},"Û":{"ha":947,"x_min":0,"x_max":0,"o":"m 440 1240 l 510 1240 l 660 1071 l 601 1071 l 474 1179 l 344 1071 l 288 1071 m 469 -10 b 114 356 246 -10 114 118 l 114 993 l 190 993 l 190 364 b 471 56 190 151 286 56 b 757 382 661 56 757 147 l 757 993 l 835 993 l 835 371 b 469 -10 835 133 717 -10 "},"Ù":{"ha":947,"x_min":0,"x_max":0,"o":"m 331 1240 l 422 1240 l 511 1071 l 453 1071 m 469 -10 b 114 356 246 -10 114 118 l 114 993 l 190 993 l 190 364 b 471 56 190 151 286 56 b 757 382 661 56 757 147 l 757 993 l 835 993 l 835 371 b 469 -10 835 133 717 -10 "},"ı":{"ha":307,"x_min":0,"x_max":0,"o":"m 117 726 l 190 726 l 190 0 l 117 0 "},"ˆ":{"ha":556,"x_min":0,"x_max":0,"o":"m 244 1028 l 314 1028 l 464 840 l 406 840 l 278 965 l 149 840 l 92 840 "},"˜":{"ha":556,"x_min":0,"x_max":0,"o":"m 367 856 b 194 929 300 856 243 929 b 132 856 165 929 139 901 l 75 856 b 196 993 86 943 135 993 b 367 919 261 993 318 919 b 431 993 396 919 424 946 l 486 993 b 367 856 475 906 426 856 "},"¯":{"ha":556,"x_min":0,"x_max":0,"o":"m 110 957 l 446 957 l 446 899 l 110 899 "},"˘":{"ha":556,"x_min":0,"x_max":0,"o":"m 276 856 b 107 1024 182 856 113 925 l 168 1024 b 276 917 175 958 213 917 b 392 1024 342 917 382 958 l 450 1024 b 276 856 444 925 369 856 "},"˙":{"ha":556,"x_min":0,"x_max":0,"o":"m 278 882 b 225 935 249 882 225 906 b 278 986 225 963 249 986 b 331 935 307 986 331 963 b 278 882 331 906 307 882 "},"˚":{"ha":556,"x_min":0,"x_max":0,"o":"m 278 879 b 363 967 326 879 363 917 b 278 1056 363 1018 326 1056 b 193 967 231 1056 193 1018 b 278 879 193 917 231 879 m 278 835 b 142 967 204 835 142 894 b 278 1100 142 1039 204 1100 b 414 967 353 1100 414 1039 b 278 835 414 894 353 835 "},"¸":{"ha":556,"x_min":0,"x_max":0,"o":"m 292 -294 b 158 -186 217 -294 165 -251 l 219 -186 b 289 -244 225 -218 249 -244 b 358 -183 331 -244 358 -221 b 296 -129 358 -143 326 -129 b 246 -140 272 -129 254 -136 l 210 -111 l 272 0 l 332 0 l 283 -85 b 424 -186 351 -69 424 -101 b 292 -294 424 -257 364 -294 "},"˝":{"ha":556,"x_min":0,"x_max":0,"o":"m 224 1044 l 307 1044 l 211 840 l 156 840 m 407 1044 l 490 1044 l 394 840 l 339 840 "},"˛":{"ha":556,"x_min":0,"x_max":0,"o":"m 301 -253 b 172 -149 221 -253 172 -211 b 282 0 172 -85 224 -32 l 349 0 b 243 -136 281 -44 243 -86 b 311 -197 243 -174 265 -197 b 381 -183 335 -197 360 -193 l 381 -237 b 301 -253 360 -246 333 -253 "},"ˇ":{"ha":556,"x_min":0,"x_max":0,"o":"m 92 1039 l 150 1039 l 278 914 l 407 1039 l 464 1039 l 311 851 l 242 851 "},"Đ":{"ha":968,"x_min":0,"x_max":0,"o":"m 39 529 l 143 529 l 143 993 l 400 993 b 894 506 729 993 894 782 l 894 493 b 397 0 894 218 738 0 l 143 0 l 143 468 l 39 468 m 394 64 b 815 494 678 64 815 242 l 815 506 b 393 929 815 750 686 929 l 221 929 l 221 529 l 510 529 l 510 468 l 221 468 l 221 64 "},"Ŋ":{"ha":990,"x_min":0,"x_max":0,"o":"m 610 -264 b 471 -236 540 -264 497 -250 l 471 -171 b 607 -200 506 -186 547 -200 b 786 -7 715 -200 785 -144 l 203 907 l 203 0 l 128 0 l 128 993 l 233 993 l 789 125 l 789 993 l 863 993 l 863 3 b 610 -264 863 -187 756 -264 "},"Ĳ":{"ha":856,"x_min":0,"x_max":0,"o":"m 135 993 l 213 993 l 213 0 l 135 0 m 488 -10 b 349 18 418 -10 375 6 l 349 83 b 483 54 383 68 424 54 b 663 254 594 54 663 111 l 663 993 l 740 993 l 740 251 b 488 -10 740 68 632 -10 "},"ȷ":{"ha":307,"x_min":0,"x_max":0,"o":"m 10 -199 b 117 -72 92 -192 117 -150 l 117 726 l 190 726 l 190 -67 b 10 -261 190 -193 142 -256 "},"đ":{"ha":850,"x_min":0,"x_max":0,"o":"m 400 922 l 663 922 l 663 1074 l 736 1074 l 736 922 l 843 922 l 843 865 l 736 865 l 736 0 l 663 0 l 663 168 b 386 -11 624 81 522 -11 b 60 353 201 -11 60 122 l 60 364 b 397 738 60 588 206 738 b 663 565 540 738 621 656 l 663 865 l 400 865 m 393 51 b 664 358 540 51 664 158 l 664 369 b 404 675 664 569 556 675 b 136 367 249 675 136 563 l 136 356 b 393 51 136 157 249 51 "},"ŋ":{"ha":810,"x_min":0,"x_max":0,"o":"m 508 -199 b 629 -57 597 -190 629 -149 l 629 451 b 428 674 629 606 557 674 b 188 440 307 674 188 593 l 188 0 l 114 0 l 114 726 l 188 726 l 188 585 b 444 738 221 664 315 738 b 703 447 599 738 703 654 l 703 -51 b 508 -261 703 -192 647 -254 "},"ĳ":{"ha":615,"x_min":0,"x_max":0,"o":"m 117 726 l 190 726 l 190 0 l 117 0 m 153 882 b 100 935 124 882 100 906 b 153 986 100 963 124 986 b 204 935 182 986 204 963 b 153 882 204 906 182 882 m 317 -199 b 424 -72 399 -192 424 -150 l 424 726 l 497 726 l 497 -67 b 317 -261 497 -193 449 -256 m 460 882 b 407 935 431 882 407 906 b 460 986 407 963 431 986 b 511 935 489 986 511 963 b 460 882 511 906 489 882 "},"Ă":{"ha":908,"x_min":0,"x_max":0,"o":"m 403 993 l 506 993 l 863 0 l 785 0 l 675 304 l 228 304 l 119 0 l 46 0 m 250 367 l 653 367 l 451 929 m 446 1071 b 271 1240 351 1071 276 1143 l 332 1240 b 446 1132 339 1176 382 1132 b 565 1240 511 1132 557 1176 l 625 1240 b 446 1071 619 1143 539 1071 "},"Ā":{"ha":908,"x_min":0,"x_max":0,"o":"m 403 993 l 506 993 l 863 0 l 785 0 l 675 304 l 228 304 l 119 0 l 46 0 m 250 367 l 653 367 l 451 929 m 276 1157 l 621 1157 l 621 1099 l 276 1099 "},"Ą":{"ha":908,"x_min":0,"x_max":0,"o":"m 807 -253 b 678 -149 726 -253 678 -211 b 785 0 678 -87 726 -35 l 675 304 l 228 304 l 119 0 l 46 0 l 403 993 l 506 993 l 861 3 b 749 -136 785 -44 749 -86 b 817 -197 749 -174 771 -197 b 888 -183 840 -197 865 -193 l 888 -237 b 807 -253 865 -246 840 -253 m 250 367 l 653 367 l 451 929 "},"Ǻ":{"ha":908,"x_min":0,"x_max":0,"o":"m 403 993 l 506 993 l 863 0 l 785 0 l 675 304 l 228 304 l 119 0 l 46 0 m 250 367 l 653 367 l 451 929 m 453 1040 b 317 1174 379 1040 317 1101 b 453 1306 317 1246 379 1306 b 589 1174 528 1306 589 1246 b 453 1040 589 1101 528 1040 m 453 1085 b 538 1174 501 1085 538 1124 b 453 1263 538 1224 501 1263 b 368 1174 406 1263 368 1224 b 453 1085 368 1124 406 1085 m 507 1515 l 599 1515 l 476 1346 l 418 1346 "},"Ǽ":{"ha":1314,"x_min":0,"x_max":0,"o":"m 544 993 l 1226 993 l 1226 929 l 733 929 l 733 542 l 1133 542 l 1133 478 l 733 478 l 733 64 l 1251 64 l 1251 0 l 656 0 l 656 306 l 272 306 l 119 0 l 40 0 m 303 367 l 656 367 l 656 929 l 585 929 m 894 1240 l 986 1240 l 864 1071 l 806 1071 "},"Ć":{"ha":1007,"x_min":0,"x_max":0,"o":"m 535 -11 b 74 490 251 -11 74 190 l 74 501 b 535 1006 74 794 275 1006 b 936 694 740 1006 906 899 l 858 694 b 536 943 828 854 719 943 b 153 503 314 943 153 765 l 153 492 b 536 54 153 224 300 54 b 875 319 715 54 843 149 l 947 319 b 535 -11 911 106 749 -11 m 588 1240 l 679 1240 l 557 1071 l 499 1071 "},"Č":{"ha":1007,"x_min":0,"x_max":0,"o":"m 350 1240 l 408 1240 l 538 1133 l 668 1240 l 725 1240 l 571 1071 l 501 1071 m 535 -11 b 74 490 251 -11 74 190 l 74 501 b 535 1006 74 794 275 1006 b 936 694 740 1006 906 899 l 858 694 b 536 943 828 854 719 943 b 153 503 314 943 153 765 l 153 492 b 536 54 153 224 300 54 b 875 319 715 54 843 149 l 947 319 b 535 -11 911 106 749 -11 "},"Ĉ":{"ha":1007,"x_min":0,"x_max":0,"o":"m 504 1240 l 574 1240 l 724 1071 l 665 1071 l 538 1179 l 408 1071 l 351 1071 m 535 -11 b 74 490 251 -11 74 190 l 74 501 b 535 1006 74 794 275 1006 b 936 694 740 1006 906 899 l 858 694 b 536 943 828 854 719 943 b 153 503 314 943 153 765 l 153 492 b 536 54 153 224 300 54 b 875 319 715 54 843 149 l 947 319 b 535 -11 911 106 749 -11 "},"Ċ":{"ha":1007,"x_min":0,"x_max":0,"o":"m 535 -11 b 74 490 251 -11 74 190 l 74 501 b 535 1006 74 794 275 1006 b 936 694 740 1006 906 899 l 858 694 b 536 943 828 854 719 943 b 153 503 314 943 153 765 l 153 492 b 536 54 153 224 300 54 b 875 319 715 54 843 149 l 947 319 b 535 -11 911 106 749 -11 m 533 1093 b 481 1146 504 1093 481 1117 b 533 1197 481 1174 504 1197 b 586 1146 563 1197 586 1174 b 533 1093 586 1117 563 1093 "},"Ď":{"ha":953,"x_min":0,"x_max":0,"o":"m 249 1240 l 307 1240 l 436 1133 l 567 1240 l 624 1240 l 469 1071 l 400 1071 m 381 64 b 800 494 663 64 800 242 l 800 506 b 379 929 800 750 671 929 l 206 929 l 206 64 m 128 993 l 386 993 b 881 506 714 993 881 782 l 881 493 b 383 0 881 218 722 0 l 128 0 "},"Ĕ":{"ha":786,"x_min":0,"x_max":0,"o":"m 128 993 l 699 993 l 699 929 l 206 929 l 206 542 l 606 542 l 606 478 l 206 478 l 206 64 l 724 64 l 724 0 l 128 0 m 418 1071 b 243 1240 324 1071 249 1143 l 304 1240 b 418 1132 311 1176 354 1132 b 538 1240 483 1132 529 1176 l 597 1240 b 418 1071 592 1143 511 1071 "},"Ě":{"ha":786,"x_min":0,"x_max":0,"o":"m 231 1240 l 289 1240 l 418 1133 l 549 1240 l 606 1240 l 451 1071 l 382 1071 m 128 993 l 699 993 l 699 929 l 206 929 l 206 542 l 606 542 l 606 478 l 206 478 l 206 64 l 724 64 l 724 0 l 128 0 "},"Ė":{"ha":786,"x_min":0,"x_max":0,"o":"m 415 1093 b 363 1146 386 1093 363 1117 b 415 1197 363 1174 386 1197 b 468 1146 444 1197 468 1174 b 415 1093 468 1117 444 1093 m 128 993 l 699 993 l 699 929 l 206 929 l 206 542 l 606 542 l 606 478 l 206 478 l 206 64 l 724 64 l 724 0 l 128 0 "},"Ē":{"ha":786,"x_min":0,"x_max":0,"o":"m 128 993 l 699 993 l 699 929 l 206 929 l 206 542 l 606 542 l 606 478 l 206 478 l 206 64 l 724 64 l 724 0 l 128 0 m 243 1157 l 588 1157 l 588 1099 l 243 1099 "},"Ę":{"ha":786,"x_min":0,"x_max":0,"o":"m 607 -253 b 476 -149 526 -253 476 -211 b 585 0 476 -87 525 -33 l 128 0 l 128 993 l 699 993 l 699 929 l 206 929 l 206 542 l 606 542 l 606 478 l 206 478 l 206 64 l 724 64 l 724 0 l 653 0 b 549 -136 585 -44 549 -86 b 617 -197 549 -174 569 -197 b 686 -183 640 -197 664 -193 l 686 -237 b 607 -253 665 -246 639 -253 "},"Ğ":{"ha":1050,"x_min":0,"x_max":0,"o":"m 539 1071 b 364 1240 444 1071 369 1143 l 425 1240 b 539 1132 432 1176 475 1132 b 658 1240 604 1132 650 1176 l 718 1240 b 539 1071 713 1143 632 1071 m 550 -11 b 74 490 251 -11 74 199 l 74 501 b 547 1006 74 792 275 1006 b 946 710 738 1006 908 917 l 868 710 b 549 943 832 874 707 943 b 153 503 310 943 153 761 l 153 492 b 550 53 153 228 294 53 b 901 414 782 53 899 196 l 901 419 l 596 419 l 596 485 l 976 485 l 976 428 b 550 -11 976 142 806 -11 "},"Ĝ":{"ha":1050,"x_min":0,"x_max":0,"o":"m 508 1240 l 578 1240 l 728 1071 l 669 1071 l 542 1179 l 413 1071 l 356 1071 m 550 -11 b 74 490 251 -11 74 199 l 74 501 b 547 1006 74 792 275 1006 b 946 710 738 1006 908 917 l 868 710 b 549 943 832 874 707 943 b 153 503 310 943 153 761 l 153 492 b 550 53 153 228 294 53 b 901 414 782 53 899 196 l 901 419 l 596 419 l 596 485 l 976 485 l 976 428 b 550 -11 976 142 806 -11 "},"Ģ":{"ha":1050,"x_min":0,"x_max":0,"o":"m 442 -261 l 522 -57 l 593 -78 l 489 -283 m 550 -11 b 74 490 251 -11 74 199 l 74 501 b 547 1006 74 792 275 1006 b 946 710 738 1006 908 917 l 868 710 b 549 943 832 874 707 943 b 153 503 310 943 153 761 l 153 492 b 550 53 153 228 294 53 b 901 414 782 53 899 196 l 901 419 l 596 419 l 596 485 l 976 485 l 976 428 b 550 -11 976 142 806 -11 "},"Ġ":{"ha":1050,"x_min":0,"x_max":0,"o":"m 542 1093 b 489 1146 513 1093 489 1117 b 542 1197 489 1174 513 1197 b 594 1146 571 1197 594 1174 b 542 1093 594 1117 571 1093 m 550 -11 b 74 490 251 -11 74 199 l 74 501 b 547 1006 74 792 275 1006 b 946 710 738 1006 908 917 l 868 710 b 549 943 832 874 707 943 b 153 503 310 943 153 761 l 153 492 b 550 53 153 228 294 53 b 901 414 782 53 899 196 l 901 419 l 596 419 l 596 485 l 976 485 l 976 428 b 550 -11 976 142 806 -11 "},"Ħ":{"ha":996,"x_min":0,"x_max":0,"o":"m 18 769 l 128 769 l 128 993 l 206 993 l 206 769 l 790 769 l 790 993 l 868 993 l 868 769 l 978 769 l 978 708 l 868 708 l 868 0 l 790 0 l 790 465 l 206 465 l 206 0 l 128 0 l 128 708 l 18 708 m 790 531 l 790 708 l 206 708 l 206 531 "},"Ĥ":{"ha":996,"x_min":0,"x_max":0,"o":"m 128 993 l 206 993 l 206 531 l 790 531 l 790 993 l 868 993 l 868 0 l 790 0 l 790 465 l 206 465 l 206 0 l 128 0 m 464 1240 l 533 1240 l 683 1071 l 625 1071 l 497 1179 l 368 1071 l 311 1071 "},"İ":{"ha":347,"x_min":0,"x_max":0,"o":"m 135 993 l 213 993 l 213 0 l 135 0 m 174 1093 b 121 1146 144 1093 121 1117 b 174 1197 121 1174 144 1197 b 226 1146 203 1197 226 1174 b 174 1093 226 1117 203 1093 "},"Ĭ":{"ha":347,"x_min":0,"x_max":0,"o":"m 135 993 l 213 993 l 213 0 l 135 0 m 174 1071 b -1 1240 79 1071 4 1143 l 60 1240 b 174 1132 67 1176 110 1132 b 293 1240 239 1132 285 1176 l 353 1240 b 174 1071 347 1143 267 1071 "},"Ī":{"ha":347,"x_min":0,"x_max":0,"o":"m 135 993 l 213 993 l 213 0 l 135 0 m 1 1157 l 346 1157 l 346 1099 l 1 1099 "},"Į":{"ha":347,"x_min":0,"x_max":0,"o":"m 172 -253 b 42 -149 92 -253 42 -211 b 135 -1 42 -87 85 -37 l 135 993 l 213 993 l 213 3 b 114 -136 153 -37 114 -83 b 182 -197 114 -174 135 -197 b 251 -183 206 -197 229 -193 l 251 -237 b 172 -253 231 -246 204 -253 "},"Ĩ":{"ha":347,"x_min":0,"x_max":0,"o":"m 135 993 l 213 993 l 213 0 l 135 0 m 261 1075 b 90 1149 194 1075 139 1149 b 26 1074 58 1149 33 1121 l -31 1074 b 90 1211 -19 1163 29 1211 b 261 1138 156 1211 211 1138 b 325 1213 292 1138 318 1165 l 381 1213 b 261 1075 369 1124 321 1075 "},"Ĵ":{"ha":557,"x_min":0,"x_max":0,"o":"m 369 1240 l 439 1240 l 589 1071 l 531 1071 l 403 1179 l 274 1071 l 217 1071 m 190 -10 b 51 18 121 -10 78 6 l 51 83 b 186 54 86 68 126 54 b 365 254 297 54 365 111 l 365 993 l 443 993 l 443 251 b 190 -10 443 68 335 -10 "},"Ķ":{"ha":832,"x_min":0,"x_max":0,"o":"m 128 993 l 206 993 l 206 504 l 688 994 l 776 994 l 296 510 l 800 0 l 706 0 l 206 501 l 206 0 l 128 0 m 333 -261 l 414 -57 l 485 -78 l 381 -283 "},"Ĺ":{"ha":736,"x_min":0,"x_max":0,"o":"m 221 1240 l 313 1240 l 190 1071 l 132 1071 m 128 993 l 206 993 l 206 64 l 688 64 l 688 0 l 128 0 "},"Ľ":{"ha":736,"x_min":0,"x_max":0,"o":"m 456 993 l 538 993 l 476 775 l 422 775 m 128 993 l 206 993 l 206 64 l 688 64 l 688 0 l 128 0 "},"Ļ":{"ha":736,"x_min":0,"x_max":0,"o":"m 301 -261 l 382 -57 l 453 -78 l 349 -283 m 128 993 l 206 993 l 206 64 l 688 64 l 688 0 l 128 0 "},"Ŀ":{"ha":736,"x_min":0,"x_max":0,"o":"m 128 993 l 206 993 l 206 64 l 688 64 l 688 0 l 128 0 m 582 463 b 524 522 550 463 524 489 b 582 581 524 554 550 581 b 642 522 615 581 642 554 b 582 463 642 489 615 463 "},"Ń":{"ha":990,"x_min":0,"x_max":0,"o":"m 560 1240 l 651 1240 l 529 1071 l 471 1071 m 128 993 l 233 993 l 789 107 l 789 993 l 863 993 l 863 0 l 771 0 l 203 907 l 203 0 l 128 0 "},"Ň":{"ha":990,"x_min":0,"x_max":0,"o":"m 322 1240 l 381 1240 l 510 1133 l 640 1240 l 697 1240 l 543 1071 l 474 1071 m 128 993 l 233 993 l 789 107 l 789 993 l 863 993 l 863 0 l 771 0 l 203 907 l 203 0 l 128 0 "},"Ņ":{"ha":990,"x_min":0,"x_max":0,"o":"m 381 -261 l 461 -57 l 532 -78 l 428 -283 m 128 993 l 233 993 l 789 107 l 789 993 l 863 993 l 863 0 l 771 0 l 203 907 l 203 0 l 128 0 "},"Ŏ":{"ha":1113,"x_min":0,"x_max":0,"o":"m 553 1071 b 378 1240 458 1071 383 1143 l 439 1240 b 553 1132 446 1176 489 1132 b 672 1240 618 1132 664 1176 l 732 1240 b 553 1071 726 1143 646 1071 m 560 54 b 960 494 797 54 960 240 l 960 506 b 557 940 960 747 800 940 b 153 503 314 940 153 753 l 153 492 b 560 54 153 239 329 54 m 560 -11 b 74 490 276 -11 74 213 l 74 501 b 557 1004 74 783 278 1004 b 1040 504 838 1004 1040 783 l 1040 493 b 560 -11 1040 213 838 -11 "},"Ő":{"ha":1113,"x_min":0,"x_max":0,"o":"m 493 1240 l 576 1240 l 486 1071 l 431 1071 m 676 1240 l 760 1240 l 669 1071 l 614 1071 m 560 54 b 960 494 797 54 960 240 l 960 506 b 557 940 960 747 800 940 b 153 503 314 940 153 753 l 153 492 b 560 54 153 239 329 54 m 560 -11 b 74 490 276 -11 74 213 l 74 501 b 557 1004 74 783 278 1004 b 1040 504 838 1004 1040 783 l 1040 493 b 560 -11 1040 213 838 -11 "},"Ō":{"ha":1113,"x_min":0,"x_max":0,"o":"m 383 1157 l 728 1157 l 728 1099 l 383 1099 m 560 54 b 960 494 797 54 960 240 l 960 506 b 557 940 960 747 800 940 b 153 503 314 940 153 753 l 153 492 b 560 54 153 239 329 54 m 560 -11 b 74 490 276 -11 74 213 l 74 501 b 557 1004 74 783 278 1004 b 1040 504 838 1004 1040 783 l 1040 493 b 560 -11 1040 213 838 -11 "},"Ǿ":{"ha":1113,"x_min":0,"x_max":0,"o":"m 57 7 l 192 156 b 74 490 117 244 74 361 l 74 501 b 557 1004 74 783 278 1004 b 864 896 676 1004 782 964 l 982 1026 l 1022 985 l 906 857 b 1040 504 990 767 1040 642 l 1040 493 b 560 -11 1040 213 838 -11 b 232 114 429 -11 315 36 l 99 -33 m 560 54 b 960 494 797 54 960 240 l 960 506 b 858 806 960 625 924 729 l 279 165 b 560 54 351 94 449 54 m 153 492 b 240 210 153 379 185 283 l 818 846 b 557 940 751 906 661 940 b 153 503 314 940 153 753 l 153 492 m 607 1240 l 699 1240 l 576 1071 l 518 1071 "},"Ŕ":{"ha":842,"x_min":0,"x_max":0,"o":"m 458 1240 l 550 1240 l 428 1071 l 369 1071 m 128 993 l 400 993 b 738 726 593 993 738 918 l 738 721 b 481 458 738 556 629 479 l 796 0 l 710 0 l 399 453 l 206 453 l 206 0 l 128 0 m 404 515 b 660 721 564 515 660 576 l 660 726 b 404 929 660 879 558 929 l 206 929 l 206 515 "},"Ř":{"ha":842,"x_min":0,"x_max":0,"o":"m 221 1240 l 279 1240 l 408 1133 l 539 1240 l 596 1240 l 442 1071 l 372 1071 m 128 993 l 400 993 b 738 726 593 993 738 918 l 738 721 b 481 458 738 556 629 479 l 796 0 l 710 0 l 399 453 l 206 453 l 206 0 l 128 0 m 404 515 b 660 721 564 515 660 576 l 660 726 b 404 929 660 879 558 929 l 206 929 l 206 515 "},"Ŗ":{"ha":842,"x_min":0,"x_max":0,"o":"m 322 -261 l 403 -57 l 474 -78 l 369 -283 m 128 993 l 400 993 b 738 726 593 993 738 918 l 738 721 b 481 458 738 556 629 479 l 796 0 l 710 0 l 399 453 l 206 453 l 206 0 l 128 0 m 404 515 b 660 721 564 515 660 576 l 660 726 b 404 929 660 879 558 929 l 206 929 l 206 515 "},"Ś":{"ha":836,"x_min":0,"x_max":0,"o":"m 428 -11 b 58 285 182 -11 79 122 l 135 285 b 428 53 151 160 221 53 b 685 265 583 53 685 143 b 418 483 685 404 618 453 b 97 744 201 515 97 588 b 410 1004 97 899 224 1004 b 729 754 594 1004 707 913 l 658 754 b 410 940 635 878 557 940 b 169 750 257 940 169 869 b 431 553 169 642 224 583 b 760 271 653 519 760 457 b 428 -11 760 114 628 -11 m 458 1240 l 550 1240 l 428 1071 l 369 1071 "},"Ş":{"ha":836,"x_min":0,"x_max":0,"o":"m 385 -294 b 251 -186 310 -294 258 -251 l 313 -186 b 382 -244 318 -218 342 -244 b 451 -183 424 -244 451 -221 b 389 -129 451 -143 419 -129 b 339 -140 365 -129 347 -136 l 303 -111 l 361 -7 b 58 285 163 14 76 138 l 135 285 b 428 53 151 160 221 53 b 685 265 583 53 685 143 b 418 483 685 404 618 453 b 97 744 201 515 97 588 b 410 1004 97 899 224 1004 b 729 754 594 1004 707 913 l 658 754 b 410 940 635 878 557 940 b 169 750 257 940 169 869 b 431 553 169 642 224 583 b 760 271 653 519 760 457 b 428 -11 760 114 628 -11 l 418 -11 l 376 -85 b 517 -186 444 -69 517 -101 b 385 -294 517 -257 457 -294 "},"Ŝ":{"ha":836,"x_min":0,"x_max":0,"o":"m 375 1240 l 444 1240 l 594 1071 l 536 1071 l 408 1179 l 279 1071 l 222 1071 m 428 -11 b 58 285 182 -11 79 122 l 135 285 b 428 53 151 160 221 53 b 685 265 583 53 685 143 b 418 483 685 404 618 453 b 97 744 201 515 97 588 b 410 1004 97 899 224 1004 b 729 754 594 1004 707 913 l 658 754 b 410 940 635 878 557 940 b 169 750 257 940 169 869 b 431 553 169 642 224 583 b 760 271 653 519 760 457 b 428 -11 760 114 628 -11 "},"Ș":{"ha":836,"x_min":0,"x_max":0,"o":"m 306 -261 l 386 -57 l 457 -78 l 353 -283 m 428 -11 b 58 285 182 -11 79 122 l 135 285 b 428 53 151 160 221 53 b 685 265 583 53 685 143 b 418 483 685 404 618 453 b 97 744 201 515 97 588 b 410 1004 97 899 224 1004 b 729 754 594 1004 707 913 l 658 754 b 410 940 635 878 557 940 b 169 750 257 940 169 869 b 431 553 169 642 224 583 b 760 271 653 519 760 457 b 428 -11 760 114 628 -11 "},"Ť":{"ha":776,"x_min":0,"x_max":0,"o":"m 200 1240 l 258 1240 l 388 1133 l 518 1240 l 575 1240 l 421 1071 l 351 1071 m 350 929 l 42 929 l 42 993 l 735 993 l 735 929 l 426 929 l 426 0 l 350 0 "},"Ţ":{"ha":776,"x_min":0,"x_max":0,"o":"m 288 -261 l 368 -57 l 439 -78 l 335 -283 m 350 929 l 42 929 l 42 993 l 735 993 l 735 929 l 426 929 l 426 0 l 350 0 "},"Ŧ":{"ha":776,"x_min":0,"x_max":0,"o":"m 139 567 l 350 567 l 350 929 l 42 929 l 42 993 l 735 993 l 735 929 l 426 929 l 426 567 l 639 567 l 639 507 l 426 507 l 426 0 l 350 0 l 350 507 l 139 507 "},"Ŭ":{"ha":947,"x_min":0,"x_max":0,"o":"m 469 -10 b 114 356 246 -10 114 118 l 114 993 l 190 993 l 190 364 b 471 56 190 151 286 56 b 757 382 661 56 757 147 l 757 993 l 835 993 l 835 371 b 469 -10 835 133 717 -10 m 471 1071 b 296 1240 376 1071 301 1143 l 357 1240 b 471 1132 364 1176 407 1132 b 590 1240 536 1132 582 1176 l 650 1240 b 471 1071 644 1143 564 1071 "},"Ű":{"ha":947,"x_min":0,"x_max":0,"o":"m 411 1240 l 494 1240 l 404 1071 l 349 1071 m 594 1240 l 678 1240 l 588 1071 l 532 1071 m 469 -10 b 114 356 246 -10 114 118 l 114 993 l 190 993 l 190 364 b 471 56 190 151 286 56 b 757 382 661 56 757 147 l 757 993 l 835 993 l 835 371 b 469 -10 835 133 717 -10 "},"Ū":{"ha":947,"x_min":0,"x_max":0,"o":"m 469 -10 b 114 356 246 -10 114 118 l 114 993 l 190 993 l 190 364 b 471 56 190 151 286 56 b 757 382 661 56 757 147 l 757 993 l 835 993 l 835 371 b 469 -10 835 133 717 -10 m 301 1157 l 646 1157 l 646 1099 l 301 1099 "},"Ų":{"ha":947,"x_min":0,"x_max":0,"o":"m 529 -253 b 400 -149 449 -253 400 -211 b 499 -8 400 -92 442 -40 b 469 -10 490 -8 478 -10 b 114 356 246 -10 114 118 l 114 993 l 190 993 l 190 364 b 471 56 190 151 286 56 b 757 382 661 56 757 147 l 757 993 l 835 993 l 835 371 b 646 24 835 197 769 75 b 471 -136 550 -18 471 -60 b 539 -197 471 -174 493 -197 b 608 -183 563 -197 588 -193 l 608 -237 b 529 -253 588 -246 563 -253 "},"Ů":{"ha":947,"x_min":0,"x_max":0,"o":"m 469 -10 b 114 356 246 -10 114 118 l 114 993 l 190 993 l 190 364 b 471 56 190 151 286 56 b 757 382 661 56 757 147 l 757 993 l 835 993 l 835 371 b 469 -10 835 133 717 -10 m 474 1058 b 558 1147 522 1058 558 1097 b 474 1236 558 1197 522 1236 b 389 1147 426 1236 389 1197 b 474 1058 389 1097 426 1058 m 474 1014 b 338 1147 400 1014 338 1075 b 474 1279 338 1219 400 1279 b 610 1147 549 1279 610 1219 b 474 1014 610 1075 549 1014 "},"Ũ":{"ha":947,"x_min":0,"x_max":0,"o":"m 469 -10 b 114 356 246 -10 114 118 l 114 993 l 190 993 l 190 364 b 471 56 190 151 286 56 b 757 382 661 56 757 147 l 757 993 l 835 993 l 835 371 b 469 -10 835 133 717 -10 m 560 1075 b 389 1149 493 1075 438 1149 b 325 1074 357 1149 332 1121 l 268 1074 b 389 1211 279 1163 328 1211 b 560 1138 454 1211 510 1138 b 624 1213 590 1138 617 1165 l 679 1213 b 560 1075 668 1124 619 1075 "},"Ẃ":{"ha":1278,"x_min":0,"x_max":0,"o":"m 699 1240 l 790 1240 l 668 1071 l 610 1071 m 46 993 l 124 993 l 351 118 l 614 993 l 668 993 l 921 115 l 1161 993 l 1232 993 l 960 0 l 885 0 l 640 856 l 382 0 l 308 0 "},"Ŵ":{"ha":1278,"x_min":0,"x_max":0,"o":"m 604 1240 l 674 1240 l 824 1071 l 765 1071 l 638 1179 l 508 1071 l 451 1071 m 46 993 l 124 993 l 351 118 l 614 993 l 668 993 l 921 115 l 1161 993 l 1232 993 l 960 0 l 885 0 l 640 856 l 382 0 l 308 0 "},"Ẅ":{"ha":1278,"x_min":0,"x_max":0,"o":"m 515 1094 b 464 1146 486 1094 464 1118 b 515 1196 464 1172 486 1196 b 565 1146 543 1196 565 1172 b 515 1094 565 1118 543 1094 m 765 1094 b 715 1146 738 1094 715 1118 b 765 1196 715 1172 738 1196 b 815 1146 793 1196 815 1172 b 765 1094 815 1118 793 1094 m 46 993 l 124 993 l 351 118 l 614 993 l 668 993 l 921 115 l 1161 993 l 1232 993 l 960 0 l 885 0 l 640 856 l 382 0 l 308 0 "},"Ẁ":{"ha":1278,"x_min":0,"x_max":0,"o":"m 497 1240 l 589 1240 l 678 1071 l 619 1071 m 46 993 l 124 993 l 351 118 l 614 993 l 668 993 l 921 115 l 1161 993 l 1232 993 l 960 0 l 885 0 l 640 856 l 382 0 l 308 0 "},"Ŷ":{"ha":803,"x_min":0,"x_max":0,"o":"m 372 442 l 32 993 l 118 993 l 413 507 l 693 993 l 771 993 l 450 440 l 450 0 l 372 0 m 372 1240 l 442 1240 l 592 1071 l 533 1071 l 406 1179 l 276 1071 l 219 1071 "},"Ỳ":{"ha":803,"x_min":0,"x_max":0,"o":"m 372 442 l 32 993 l 118 993 l 413 507 l 693 993 l 771 993 l 450 440 l 450 0 l 372 0 m 269 1240 l 361 1240 l 450 1071 l 392 1071 "},"Ź":{"ha":815,"x_min":0,"x_max":0,"o":"m 463 1240 l 554 1240 l 432 1071 l 374 1071 m 38 15 l 653 929 l 88 929 l 88 993 l 761 993 l 761 979 l 154 67 l 753 67 l 753 0 l 38 0 "},"Ż":{"ha":815,"x_min":0,"x_max":0,"o":"m 38 15 l 653 929 l 88 929 l 88 993 l 761 993 l 761 979 l 154 67 l 753 67 l 753 0 l 38 0 m 411 1093 b 358 1146 382 1093 358 1117 b 411 1197 358 1174 382 1197 b 464 1146 440 1197 464 1174 b 411 1093 464 1117 440 1093 "},"ă":{"ha":735,"x_min":0,"x_max":0,"o":"m 307 -11 b 61 196 164 -11 61 58 b 401 415 61 364 222 415 l 553 415 l 553 481 b 369 675 553 617 497 675 b 165 521 260 675 182 628 l 93 521 b 372 738 110 674 235 738 b 626 481 524 738 626 665 l 626 0 l 553 0 l 553 111 b 307 -11 507 40 429 -11 m 313 49 b 553 235 446 49 553 126 l 553 358 l 404 358 b 135 196 253 358 135 326 b 313 49 135 103 193 49 m 369 856 b 200 1024 275 856 206 925 l 261 1024 b 369 917 268 958 306 917 b 485 1024 435 917 475 958 l 543 1024 b 369 856 538 925 463 856 "},"ā":{"ha":735,"x_min":0,"x_max":0,"o":"m 307 -11 b 61 196 164 -11 61 58 b 401 415 61 364 222 415 l 553 415 l 553 481 b 369 675 553 617 497 675 b 165 521 260 675 182 628 l 93 521 b 372 738 110 674 235 738 b 626 481 524 738 626 665 l 626 0 l 553 0 l 553 111 b 307 -11 507 40 429 -11 m 313 49 b 553 235 446 49 553 126 l 553 358 l 404 358 b 135 196 253 358 135 326 b 313 49 135 103 193 49 m 204 957 l 540 957 l 540 899 l 204 899 "},"ą":{"ha":735,"x_min":0,"x_max":0,"o":"m 574 -253 b 444 -149 493 -253 444 -211 b 553 1 444 -85 496 -31 l 553 111 b 307 -11 507 40 429 -11 b 61 196 164 -11 61 58 b 401 415 61 364 222 415 l 553 415 l 553 481 b 369 675 553 617 497 675 b 165 521 260 675 182 628 l 93 521 b 372 738 110 674 235 738 b 626 481 524 738 626 665 l 626 3 b 515 -136 553 -42 515 -86 b 583 -197 515 -174 538 -197 b 653 -183 607 -197 632 -193 l 653 -237 b 574 -253 632 -246 606 -253 m 313 49 b 553 235 446 49 553 126 l 553 358 l 404 358 b 135 196 253 358 135 326 b 313 49 135 103 193 49 "},"ǻ":{"ha":735,"x_min":0,"x_max":0,"o":"m 307 -11 b 61 196 164 -11 61 58 b 401 415 61 364 222 415 l 553 415 l 553 481 b 369 675 553 617 497 675 b 165 521 260 675 182 628 l 93 521 b 372 738 110 674 235 738 b 626 481 524 738 626 665 l 626 0 l 553 0 l 553 111 b 307 -11 507 40 429 -11 m 313 49 b 553 235 446 49 553 126 l 553 358 l 404 358 b 135 196 253 358 135 326 b 313 49 135 103 193 49 m 374 865 b 458 953 422 865 458 903 b 374 1042 458 1004 422 1042 b 289 953 326 1042 289 1004 b 374 865 289 903 326 865 m 374 821 b 238 953 300 821 238 881 b 374 1086 238 1025 300 1086 b 510 953 449 1086 510 1025 b 374 821 510 881 449 821 m 432 1321 l 524 1321 l 401 1151 l 343 1151 "},"ǽ":{"ha":1246,"x_min":0,"x_max":0,"o":"m 886 -11 b 596 171 747 -11 646 58 b 307 -11 549 49 442 -11 b 61 194 164 -11 61 57 b 399 415 61 364 219 415 l 556 415 l 556 479 b 369 675 556 615 496 675 b 165 521 260 675 182 628 l 93 521 b 372 738 110 674 236 738 b 610 579 492 738 579 692 b 878 738 664 678 758 738 b 1188 383 1049 738 1188 625 l 1188 358 l 628 358 b 888 51 631 164 718 51 b 1108 203 1006 51 1085 101 l 1182 203 b 886 -11 1153 64 1038 -11 m 314 49 b 556 251 446 49 556 126 l 556 358 l 400 358 b 135 194 249 358 135 325 b 314 49 135 101 193 49 m 1113 415 b 878 675 1106 593 1017 675 b 629 415 740 675 643 574 m 685 1044 l 775 1044 l 647 840 l 590 840 "},"ć":{"ha":772,"x_min":0,"x_max":0,"o":"m 457 1044 l 547 1044 l 419 840 l 363 840 m 407 -11 b 60 356 211 -11 60 135 l 60 367 b 407 738 60 589 215 738 b 710 496 554 738 690 660 l 638 496 b 407 675 619 618 521 675 b 136 367 256 675 136 558 l 136 356 b 407 51 136 164 254 51 b 649 251 528 51 631 121 l 717 251 b 407 -11 697 96 572 -11 "},"č":{"ha":772,"x_min":0,"x_max":0,"o":"m 215 1039 l 274 1039 l 401 914 l 531 1039 l 588 1039 l 435 851 l 365 851 m 407 -11 b 60 356 211 -11 60 135 l 60 367 b 407 738 60 589 215 738 b 710 496 554 738 690 660 l 638 496 b 407 675 619 618 521 675 b 136 367 256 675 136 558 l 136 356 b 407 51 136 164 254 51 b 649 251 528 51 631 121 l 717 251 b 407 -11 697 96 572 -11 "},"ĉ":{"ha":772,"x_min":0,"x_max":0,"o":"m 368 1028 l 438 1028 l 588 840 l 529 840 l 401 965 l 272 840 l 215 840 m 407 -11 b 60 356 211 -11 60 135 l 60 367 b 407 738 60 589 215 738 b 710 496 554 738 690 660 l 638 496 b 407 675 619 618 521 675 b 136 367 256 675 136 558 l 136 356 b 407 51 136 164 254 51 b 649 251 528 51 631 121 l 717 251 b 407 -11 697 96 572 -11 "},"ċ":{"ha":772,"x_min":0,"x_max":0,"o":"m 407 -11 b 60 356 211 -11 60 135 l 60 367 b 407 738 60 589 215 738 b 710 496 554 738 690 660 l 638 496 b 407 675 619 618 521 675 b 136 367 256 675 136 558 l 136 356 b 407 51 136 164 254 51 b 649 251 528 51 631 121 l 717 251 b 407 -11 697 96 572 -11 m 401 882 b 349 935 372 882 349 906 b 401 986 349 963 372 986 b 454 935 431 986 454 963 b 401 882 454 906 431 882 "},"ď":{"ha":850,"x_min":0,"x_max":0,"o":"m 829 1074 l 913 1074 l 867 849 l 813 849 m 386 -11 b 60 353 201 -11 60 122 l 60 364 b 397 738 60 588 206 738 b 663 565 540 738 621 656 l 663 1074 l 736 1074 l 736 0 l 663 0 l 663 168 b 386 -11 624 81 522 -11 m 393 51 b 664 358 540 51 664 158 l 664 369 b 404 675 664 569 556 675 b 136 367 249 675 136 563 l 136 356 b 393 51 136 157 249 51 "},"ĕ":{"ha":769,"x_min":0,"x_max":0,"o":"m 404 -11 b 60 356 194 -11 60 138 l 60 367 b 393 738 60 586 199 738 b 711 383 568 738 711 624 l 711 357 l 136 357 b 404 51 139 163 232 51 b 632 203 525 51 607 101 l 706 203 b 404 -11 675 64 560 -11 m 635 417 b 393 675 628 593 535 675 b 139 417 253 675 153 575 m 383 856 b 214 1024 289 856 219 925 l 275 1024 b 383 917 282 958 319 917 b 499 1024 449 917 489 958 l 557 1024 b 383 856 551 925 476 856 "},"ě":{"ha":769,"x_min":0,"x_max":0,"o":"m 206 1039 l 264 1039 l 392 914 l 521 1039 l 578 1039 l 425 851 l 356 851 m 404 -11 b 60 356 194 -11 60 138 l 60 367 b 393 738 60 586 199 738 b 711 383 568 738 711 624 l 711 357 l 136 357 b 404 51 139 163 232 51 b 632 203 525 51 607 101 l 706 203 b 404 -11 675 64 560 -11 m 635 417 b 393 675 628 593 535 675 b 139 417 253 675 153 575 "},"ė":{"ha":769,"x_min":0,"x_max":0,"o":"m 404 -11 b 60 356 194 -11 60 138 l 60 367 b 393 738 60 586 199 738 b 711 383 568 738 711 624 l 711 357 l 136 357 b 404 51 139 163 232 51 b 632 203 525 51 607 101 l 706 203 b 404 -11 675 64 560 -11 m 635 417 b 393 675 628 593 535 675 b 139 417 253 675 153 575 m 392 882 b 339 935 363 882 339 906 b 392 986 339 963 363 986 b 444 935 421 986 444 963 b 392 882 444 906 421 882 "},"ē":{"ha":769,"x_min":0,"x_max":0,"o":"m 404 -11 b 60 356 194 -11 60 138 l 60 367 b 393 738 60 586 199 738 b 711 383 568 738 711 624 l 711 357 l 136 357 b 404 51 139 163 232 51 b 632 203 525 51 607 101 l 706 203 b 404 -11 675 64 560 -11 m 635 417 b 393 675 628 593 535 675 b 139 417 253 675 153 575 m 224 957 l 560 957 l 560 899 l 224 899 "},"ę":{"ha":769,"x_min":0,"x_max":0,"o":"m 519 -253 b 390 -149 439 -253 390 -211 b 497 1 390 -89 438 -35 b 404 -11 467 -7 436 -11 b 60 356 194 -11 60 138 l 60 367 b 393 738 60 586 199 738 b 711 383 568 738 711 624 l 711 357 l 136 357 b 404 51 139 163 232 51 b 632 203 525 51 607 101 l 706 203 b 594 32 686 113 633 64 b 461 -136 533 -19 461 -69 b 529 -197 461 -174 483 -197 b 599 -183 553 -197 578 -193 l 599 -237 b 519 -253 578 -246 553 -253 m 635 417 b 393 675 628 593 535 675 b 139 417 253 675 153 575 "},"ğ":{"ha":850,"x_min":0,"x_max":0,"o":"m 400 -261 b 75 -42 190 -261 93 -158 l 150 -42 b 399 -199 169 -135 247 -199 b 663 51 554 -199 663 -128 l 663 200 b 388 24 624 113 522 24 b 60 371 203 24 60 160 l 60 381 b 397 738 60 588 206 738 b 663 569 540 738 621 658 l 663 726 l 736 726 l 736 49 b 400 -261 735 -165 594 -261 m 394 86 b 664 375 542 86 664 193 l 664 386 b 404 675 664 569 556 675 b 136 383 249 675 136 564 l 136 372 b 394 86 136 192 250 86 m 400 856 b 231 1024 306 856 236 925 l 292 1024 b 400 917 299 958 336 917 b 515 1024 465 917 506 958 l 574 1024 b 400 856 568 925 493 856 "},"ĝ":{"ha":850,"x_min":0,"x_max":0,"o":"m 368 1028 l 438 1028 l 588 840 l 529 840 l 401 965 l 272 840 l 215 840 m 400 -261 b 75 -42 190 -261 93 -158 l 150 -42 b 399 -199 169 -135 247 -199 b 663 51 554 -199 663 -128 l 663 200 b 388 24 624 113 522 24 b 60 371 203 24 60 160 l 60 381 b 397 738 60 588 206 738 b 663 569 540 738 621 658 l 663 726 l 736 726 l 736 49 b 400 -261 735 -165 594 -261 m 394 86 b 664 375 542 86 664 193 l 664 386 b 404 675 664 569 556 675 b 136 383 249 675 136 564 l 136 372 b 394 86 136 192 250 86 "},"ģ":{"ha":850,"x_min":0,"x_max":0,"o":"m 361 864 l 465 1069 l 514 1046 l 433 843 m 400 -261 b 75 -42 190 -261 93 -158 l 150 -42 b 399 -199 169 -135 247 -199 b 663 51 554 -199 663 -128 l 663 200 b 388 24 624 113 522 24 b 60 371 203 24 60 160 l 60 381 b 397 738 60 588 206 738 b 663 569 540 738 621 658 l 663 726 l 736 726 l 736 49 b 400 -261 735 -165 594 -261 m 394 86 b 664 375 542 86 664 193 l 664 386 b 404 675 664 569 556 675 b 136 383 249 675 136 564 l 136 372 b 394 86 136 192 250 86 "},"ġ":{"ha":850,"x_min":0,"x_max":0,"o":"m 400 -261 b 75 -42 190 -261 93 -158 l 150 -42 b 399 -199 169 -135 247 -199 b 663 51 554 -199 663 -128 l 663 200 b 388 24 624 113 522 24 b 60 371 203 24 60 160 l 60 381 b 397 738 60 588 206 738 b 663 569 540 738 621 658 l 663 726 l 736 726 l 736 49 b 400 -261 735 -165 594 -261 m 394 86 b 664 375 542 86 664 193 l 664 386 b 404 675 664 569 556 675 b 136 383 249 675 136 564 l 136 372 b 394 86 136 192 250 86 m 401 882 b 349 935 372 882 349 906 b 401 986 349 963 372 986 b 454 935 431 986 454 963 b 401 882 454 906 431 882 "},"ħ":{"ha":810,"x_min":0,"x_max":0,"o":"m 6 922 l 114 922 l 114 1074 l 188 1074 l 188 922 l 450 922 l 450 865 l 188 865 l 188 585 b 444 738 221 664 315 738 b 703 447 599 738 703 654 l 703 0 l 629 0 l 629 451 b 428 674 629 606 557 674 b 188 440 307 674 188 593 l 188 0 l 114 0 l 114 865 l 6 865 "},"ĥ":{"ha":810,"x_min":0,"x_max":0,"o":"m 114 1074 l 188 1074 l 188 585 b 444 738 221 664 315 738 b 703 447 599 738 703 654 l 703 0 l 629 0 l 629 451 b 428 674 629 606 557 674 b 188 440 307 674 188 593 l 188 0 l 114 0 m 383 1303 l 453 1303 l 603 1133 l 544 1133 l 417 1242 l 288 1133 l 231 1133 "},"ĭ":{"ha":307,"x_min":0,"x_max":0,"o":"m 117 726 l 190 726 l 190 0 l 117 0 m 153 856 b -17 1024 58 856 -11 925 l 44 1024 b 153 917 51 958 89 917 b 268 1024 218 917 258 958 l 326 1024 b 153 856 321 925 246 856 "},"ī":{"ha":307,"x_min":0,"x_max":0,"o":"m 33 957 l 274 957 l 274 899 l 33 899 m 117 726 l 190 726 l 190 0 l 117 0 "},"į":{"ha":307,"x_min":0,"x_max":0,"o":"m 157 -253 b 28 -149 76 -253 28 -211 b 117 -3 28 -86 68 -39 l 117 726 l 190 726 l 190 3 b 99 -136 135 -40 99 -83 b 167 -197 99 -174 121 -197 b 236 -183 190 -197 215 -193 l 236 -237 b 157 -253 215 -246 190 -253 m 153 882 b 100 935 124 882 100 906 b 153 986 100 963 124 986 b 204 935 182 986 204 963 b 153 882 204 906 182 882 "},"ĩ":{"ha":307,"x_min":0,"x_max":0,"o":"m 117 726 l 190 726 l 190 0 l 117 0 m 242 856 b 69 929 175 856 118 929 b 7 856 40 929 14 901 l -50 856 b 71 993 -39 943 10 993 b 242 919 136 993 193 919 b 306 993 271 919 299 946 l 361 993 b 242 856 350 906 301 856 "},"ĵ":{"ha":307,"x_min":0,"x_max":0,"o":"m 10 -199 b 117 -72 92 -192 117 -150 l 117 726 l 190 726 l 190 -67 b 10 -261 190 -193 142 -256 m 121 1028 l 190 1028 l 340 840 l 282 840 l 154 965 l 25 840 l -32 840 "},"ķ":{"ha":676,"x_min":0,"x_max":0,"o":"m 114 1074 l 188 1074 l 188 385 l 542 726 l 629 726 l 275 388 l 653 0 l 561 0 l 188 385 l 188 0 l 114 0 m 254 -261 l 335 -57 l 406 -78 l 301 -283 "},"ĺ":{"ha":308,"x_min":0,"x_max":0,"o":"m 206 1303 l 297 1303 l 175 1133 l 117 1133 m 117 1074 l 192 1074 l 192 0 l 117 0 "},"ľ":{"ha":308,"x_min":0,"x_max":0,"o":"m 285 1074 l 368 1074 l 322 849 l 268 849 m 117 1074 l 192 1074 l 192 0 l 117 0 "},"ļ":{"ha":308,"x_min":0,"x_max":0,"o":"m 53 -261 l 133 -57 l 204 -78 l 100 -283 m 117 1074 l 192 1074 l 192 0 l 117 0 "},"ŀ":{"ha":388,"x_min":0,"x_max":0,"o":"m 117 1074 l 192 1074 l 192 0 l 117 0 m 346 458 b 288 518 314 458 288 485 b 346 576 288 550 314 576 b 406 518 379 576 406 550 b 346 458 406 485 379 458 "},"ń":{"ha":810,"x_min":0,"x_max":0,"o":"m 458 1044 l 549 1044 l 421 840 l 364 840 m 114 726 l 188 726 l 188 585 b 444 738 221 664 315 738 b 703 447 599 738 703 654 l 703 0 l 629 0 l 629 451 b 428 674 629 606 557 674 b 188 440 307 674 188 593 l 188 0 l 114 0 "},"ŉ":{"ha":819,"x_min":0,"x_max":0,"o":"m -49 757 l 56 1003 l 126 972 l -1 733 m 122 726 l 196 726 l 196 585 b 453 738 229 664 324 738 b 711 447 607 738 711 654 l 711 0 l 638 0 l 638 451 b 436 674 638 606 565 674 b 196 440 315 674 196 593 l 196 0 l 122 0 "},"ň":{"ha":810,"x_min":0,"x_max":0,"o":"m 217 1039 l 275 1039 l 403 914 l 532 1039 l 589 1039 l 436 851 l 367 851 m 114 726 l 188 726 l 188 585 b 444 738 221 664 315 738 b 703 447 599 738 703 654 l 703 0 l 629 0 l 629 451 b 428 674 629 606 557 674 b 188 440 307 674 188 593 l 188 0 l 114 0 "},"ņ":{"ha":810,"x_min":0,"x_max":0,"o":"m 303 -261 l 383 -57 l 454 -78 l 350 -283 m 114 726 l 188 726 l 188 585 b 444 738 221 664 315 738 b 703 447 599 738 703 654 l 703 0 l 629 0 l 629 451 b 428 674 629 606 557 674 b 188 440 307 674 188 593 l 188 0 l 114 0 "},"ŏ":{"ha":821,"x_min":0,"x_max":0,"o":"m 411 51 b 685 357 567 51 685 169 l 685 368 b 411 675 685 560 565 675 b 136 368 256 675 136 557 l 136 357 b 411 51 136 171 253 51 m 410 -11 b 60 357 213 -11 60 143 l 60 368 b 411 738 60 586 217 738 b 761 369 607 738 761 590 l 761 358 b 410 -11 761 139 606 -11 m 408 856 b 239 1024 314 856 244 925 l 300 1024 b 408 917 307 958 344 917 b 524 1024 474 917 514 958 l 582 1024 b 408 856 576 925 501 856 "},"ő":{"ha":821,"x_min":0,"x_max":0,"o":"m 358 1044 l 442 1044 l 346 840 l 290 840 m 542 1044 l 625 1044 l 529 840 l 474 840 m 411 51 b 685 357 567 51 685 169 l 685 368 b 411 675 685 560 565 675 b 136 368 256 675 136 557 l 136 357 b 411 51 136 171 253 51 m 410 -11 b 60 357 213 -11 60 143 l 60 368 b 411 738 60 586 217 738 b 761 369 607 738 761 590 l 761 358 b 410 -11 761 139 606 -11 "},"ō":{"ha":821,"x_min":0,"x_max":0,"o":"m 242 957 l 578 957 l 578 899 l 242 899 m 411 51 b 685 357 567 51 685 169 l 685 368 b 411 675 685 560 565 675 b 136 368 256 675 136 557 l 136 357 b 411 51 136 171 253 51 m 410 -11 b 60 357 213 -11 60 143 l 60 368 b 411 738 60 586 217 738 b 761 369 607 738 761 590 l 761 358 b 410 -11 761 139 606 -11 "},"ǿ":{"ha":821,"x_min":0,"x_max":0,"o":"m 43 0 l 143 111 b 60 357 90 175 60 260 l 60 368 b 411 738 60 586 217 738 b 636 657 497 738 575 708 l 725 757 l 765 722 l 674 621 b 761 369 728 557 761 471 l 761 358 b 410 -11 761 139 606 -11 b 181 72 321 -11 242 19 l 85 -35 m 411 51 b 685 357 567 51 685 169 l 685 368 b 626 568 685 449 663 517 l 225 122 b 411 51 274 76 338 51 m 136 357 b 190 164 136 279 156 214 l 590 607 b 411 675 543 651 481 675 b 136 368 256 675 136 557 l 136 357 m 464 1044 l 554 1044 l 426 840 l 369 840 "},"ŕ":{"ha":483,"x_min":0,"x_max":0,"o":"m 324 1044 l 414 1044 l 286 840 l 229 840 m 114 726 l 188 726 l 188 574 b 433 736 228 663 300 732 l 433 667 b 188 403 293 661 188 596 l 188 0 l 114 0 "},"ř":{"ha":483,"x_min":0,"x_max":0,"o":"m 82 1039 l 140 1039 l 268 914 l 397 1039 l 454 1039 l 301 851 l 232 851 m 114 726 l 188 726 l 188 574 b 433 736 228 663 300 732 l 433 667 b 188 403 293 661 188 596 l 188 0 l 114 0 "},"ŗ":{"ha":483,"x_min":0,"x_max":0,"o":"m 49 -261 l 129 -57 l 200 -78 l 96 -283 m 114 726 l 188 726 l 188 574 b 433 736 228 663 300 732 l 433 667 b 188 403 293 661 188 596 l 188 0 l 114 0 "},"ś":{"ha":646,"x_min":0,"x_max":0,"o":"m 378 1044 l 468 1044 l 340 840 l 283 840 m 332 -12 b 53 217 161 -12 63 78 l 124 217 b 332 50 136 118 197 50 b 517 193 454 50 517 106 b 326 340 517 286 463 315 b 76 543 149 372 76 418 b 315 738 76 667 193 738 b 568 540 446 738 549 683 l 497 540 b 314 675 479 633 419 675 b 144 546 213 675 144 624 b 343 406 144 463 194 432 b 588 199 499 378 588 340 b 332 -12 588 76 497 -12 "},"ş":{"ha":646,"x_min":0,"x_max":0,"o":"m 303 -294 b 169 -186 228 -294 176 -251 l 231 -186 b 300 -244 236 -218 260 -244 b 369 -183 342 -244 369 -221 b 307 -129 369 -143 338 -129 b 257 -140 283 -129 265 -136 l 221 -111 l 278 -8 b 53 217 140 8 61 93 l 124 217 b 332 50 136 118 197 50 b 517 193 454 50 517 106 b 326 340 517 286 463 315 b 76 543 149 372 76 418 b 315 738 76 667 193 738 b 568 540 446 738 549 683 l 497 540 b 314 675 479 633 419 675 b 144 546 213 675 144 624 b 343 406 144 463 194 432 b 588 199 499 378 588 340 b 336 -12 588 76 499 -11 l 294 -85 b 435 -186 363 -69 435 -101 b 303 -294 435 -257 375 -294 "},"ŝ":{"ha":646,"x_min":0,"x_max":0,"o":"m 289 1028 l 358 1028 l 508 840 l 450 840 l 322 965 l 193 840 l 136 840 m 332 -12 b 53 217 161 -12 63 78 l 124 217 b 332 50 136 118 197 50 b 517 193 454 50 517 106 b 326 340 517 286 463 315 b 76 543 149 372 76 418 b 315 738 76 667 193 738 b 568 540 446 738 549 683 l 497 540 b 314 675 479 633 419 675 b 144 546 213 675 144 624 b 343 406 144 463 194 432 b 588 199 499 378 588 340 b 332 -12 588 76 497 -12 "},"ș":{"ha":646,"x_min":0,"x_max":0,"o":"m 224 -261 l 304 -57 l 375 -78 l 271 -283 m 332 -12 b 53 217 161 -12 63 78 l 124 217 b 332 50 136 118 197 50 b 517 193 454 50 517 106 b 326 340 517 286 463 315 b 76 543 149 372 76 418 b 315 738 76 667 193 738 b 568 540 446 738 549 683 l 497 540 b 314 675 479 633 419 675 b 144 546 213 675 144 624 b 343 406 144 463 194 432 b 588 199 499 378 588 340 b 332 -12 588 76 497 -12 "},"ŧ":{"ha":469,"x_min":0,"x_max":0,"o":"m 35 474 l 142 474 l 142 664 l 35 664 l 35 726 l 142 726 l 142 892 l 215 892 l 215 726 l 406 726 l 406 664 l 215 664 l 215 474 l 406 474 l 406 419 l 215 419 l 215 181 b 324 53 215 93 257 53 b 415 68 361 53 390 60 l 415 6 b 319 -10 392 -3 364 -10 b 142 175 204 -10 142 58 l 142 419 l 35 419 "},"ť":{"ha":469,"x_min":0,"x_max":0,"o":"m 356 1074 l 439 1074 l 393 849 l 339 849 m 319 -10 b 142 175 204 -10 142 58 l 142 664 l 35 664 l 35 726 l 142 726 l 142 892 l 215 892 l 215 726 l 406 726 l 406 664 l 215 664 l 215 181 b 324 53 215 93 257 53 b 415 68 361 53 390 60 l 415 6 b 319 -10 392 -3 364 -10 "},"ţ":{"ha":469,"x_min":0,"x_max":0,"o":"m 156 -261 l 236 -57 l 307 -78 l 203 -283 m 319 -10 b 142 175 204 -10 142 58 l 142 664 l 35 664 l 35 726 l 142 726 l 142 892 l 215 892 l 215 726 l 406 726 l 406 664 l 215 664 l 215 181 b 324 53 215 93 257 53 b 415 68 361 53 390 60 l 415 6 b 319 -10 392 -3 364 -10 "},"ŭ":{"ha":804,"x_min":0,"x_max":0,"o":"m 363 -11 b 107 267 213 -11 107 67 l 107 726 l 181 726 l 181 271 b 379 53 181 117 253 53 b 617 285 497 53 617 132 l 617 726 l 690 726 l 690 0 l 617 0 l 617 139 b 363 -11 583 60 490 -11 m 400 856 b 231 1024 306 856 236 925 l 292 1024 b 400 917 299 958 336 917 b 515 1024 465 917 506 958 l 574 1024 b 400 856 568 925 493 856 "},"ű":{"ha":804,"x_min":0,"x_max":0,"o":"m 363 -11 b 107 267 213 -11 107 67 l 107 726 l 181 726 l 181 271 b 379 53 181 117 253 53 b 617 285 497 53 617 132 l 617 726 l 690 726 l 690 0 l 617 0 l 617 139 b 363 -11 583 60 490 -11 m 350 1044 l 433 1044 l 338 840 l 282 840 m 533 1044 l 617 1044 l 521 840 l 465 840 "},"ū":{"ha":804,"x_min":0,"x_max":0,"o":"m 363 -11 b 107 267 213 -11 107 67 l 107 726 l 181 726 l 181 271 b 379 53 181 117 253 53 b 617 285 497 53 617 132 l 617 726 l 690 726 l 690 0 l 617 0 l 617 139 b 363 -11 583 60 490 -11 m 233 957 l 569 957 l 569 899 l 233 899 "},"ų":{"ha":804,"x_min":0,"x_max":0,"o":"m 639 -253 b 510 -149 558 -253 510 -211 b 617 0 510 -86 560 -31 l 617 139 b 363 -11 583 60 490 -11 b 107 267 213 -11 107 67 l 107 726 l 181 726 l 181 271 b 379 53 181 117 253 53 b 617 285 497 53 617 132 l 617 726 l 690 726 l 690 4 b 579 -136 617 -43 579 -86 b 649 -197 579 -174 603 -197 b 718 -183 672 -197 697 -193 l 718 -237 b 639 -253 697 -246 671 -253 "},"ů":{"ha":804,"x_min":0,"x_max":0,"o":"m 400 857 b 485 944 449 857 485 894 b 400 1033 485 996 449 1033 b 315 944 353 1033 315 996 b 400 857 315 894 353 857 m 400 813 b 264 944 326 813 264 872 b 400 1078 264 1017 326 1078 b 536 944 475 1078 536 1017 b 400 813 536 872 475 813 m 363 -11 b 107 267 213 -11 107 67 l 107 726 l 181 726 l 181 271 b 379 53 181 117 253 53 b 617 285 497 53 617 132 l 617 726 l 690 726 l 690 0 l 617 0 l 617 139 b 363 -11 583 60 490 -11 "},"ũ":{"ha":804,"x_min":0,"x_max":0,"o":"m 363 -11 b 107 267 213 -11 107 67 l 107 726 l 181 726 l 181 271 b 379 53 181 117 253 53 b 617 285 497 53 617 132 l 617 726 l 690 726 l 690 0 l 617 0 l 617 139 b 363 -11 583 60 490 -11 m 488 856 b 315 929 421 856 364 929 b 253 856 286 929 260 901 l 196 856 b 317 993 207 943 256 993 b 488 919 382 993 439 919 b 551 993 517 919 544 946 l 607 993 b 488 856 596 906 547 856 "},"ẃ":{"ha":1078,"x_min":0,"x_max":0,"o":"m 603 1044 l 693 1044 l 565 840 l 508 840 m 40 726 l 119 726 l 314 90 l 513 726 l 575 726 l 767 90 l 963 726 l 1038 726 l 808 0 l 724 0 l 543 608 l 350 0 l 267 0 "},"ŵ":{"ha":1078,"x_min":0,"x_max":0,"o":"m 506 1028 l 575 1028 l 725 840 l 667 840 l 539 965 l 410 840 l 353 840 m 40 726 l 119 726 l 314 90 l 513 726 l 575 726 l 767 90 l 963 726 l 1038 726 l 808 0 l 724 0 l 543 608 l 350 0 l 267 0 "},"ẅ":{"ha":1078,"x_min":0,"x_max":0,"o":"m 428 883 b 376 935 399 883 376 907 b 428 985 376 963 399 985 b 478 935 456 985 478 963 b 428 883 478 907 456 883 m 658 883 b 608 935 631 883 608 907 b 658 985 608 963 631 985 b 710 935 688 985 710 963 b 658 883 710 907 688 883 m 40 726 l 119 726 l 314 90 l 513 726 l 575 726 l 767 90 l 963 726 l 1038 726 l 808 0 l 724 0 l 543 608 l 350 0 l 267 0 "},"ẁ":{"ha":1078,"x_min":0,"x_max":0,"o":"m 40 726 l 119 726 l 314 90 l 513 726 l 575 726 l 767 90 l 963 726 l 1038 726 l 808 0 l 724 0 l 543 608 l 350 0 l 267 0 m 397 1044 l 488 1044 l 582 840 l 525 840 "},"ŷ":{"ha":706,"x_min":0,"x_max":0,"o":"m 322 63 l 35 726 l 114 726 l 363 147 l 594 726 l 669 726 l 267 -253 l 190 -253 m 321 1028 l 390 1028 l 540 840 l 482 840 l 354 965 l 225 840 l 168 840 "},"ỳ":{"ha":706,"x_min":0,"x_max":0,"o":"m 322 63 l 35 726 l 114 726 l 363 147 l 594 726 l 669 726 l 267 -253 l 190 -253 m 208 1044 l 299 1044 l 393 840 l 336 840 "},"ź":{"ha":658,"x_min":0,"x_max":0,"o":"m 396 1044 l 486 1044 l 358 840 l 301 840 m 33 13 l 506 664 l 75 664 l 75 726 l 621 726 l 621 713 l 153 65 l 611 65 l 611 0 l 33 0 "},"ż":{"ha":658,"x_min":0,"x_max":0,"o":"m 33 13 l 506 664 l 75 664 l 75 726 l 621 726 l 621 713 l 153 65 l 611 65 l 611 0 l 33 0 m 340 882 b 288 935 311 882 288 906 b 340 986 288 963 311 986 b 393 935 369 986 393 963 b 340 882 393 906 369 882 "},"ﬀ":{"ha":849,"x_min":0,"x_max":0,"o":"m 146 664 l 36 664 l 36 726 l 146 726 l 146 846 b 351 1067 146 997 231 1067 b 432 1054 386 1067 406 1064 l 432 992 b 354 1004 411 999 385 1004 b 219 853 274 1004 219 958 l 219 726 l 533 726 l 533 857 b 739 1078 533 1008 617 1078 b 818 1065 772 1078 792 1074 l 818 1003 b 740 1015 797 1010 771 1015 b 607 864 661 1015 607 969 l 607 726 l 808 726 l 808 664 l 607 664 l 607 0 l 533 0 l 533 664 l 219 664 l 219 0 l 146 0 "},"ﬁ":{"ha":761,"x_min":0,"x_max":0,"o":"m 569 726 l 643 726 l 643 0 l 569 0 m 606 882 b 553 935 576 882 553 906 b 606 986 553 963 576 986 b 657 935 635 986 657 963 b 606 882 657 906 635 882 m 146 664 l 36 664 l 36 726 l 146 726 l 146 857 b 346 1078 146 1010 228 1078 b 422 1067 379 1078 401 1075 l 422 1004 b 347 1015 403 1011 378 1015 b 219 864 271 1015 219 971 l 219 726 l 422 726 l 422 664 l 219 664 l 219 0 l 146 0 "},"ﬂ":{"ha":761,"x_min":0,"x_max":0,"o":"m 146 664 l 36 664 l 36 726 l 146 726 l 146 857 b 346 1078 146 1010 228 1078 b 422 1067 379 1078 401 1075 l 422 1004 b 347 1015 403 1011 378 1015 b 219 864 271 1015 219 971 l 219 726 l 422 726 l 422 664 l 219 664 l 219 0 l 146 0 m 569 1074 l 644 1074 l 644 0 l 569 0 "},"⅛":{"ha":967,"x_min":0,"x_max":0,"o":"m 743 -6 b 568 132 647 -6 568 40 b 671 254 568 197 613 239 b 588 358 624 271 588 307 b 743 482 588 435 661 482 b 899 360 826 482 899 435 b 817 256 899 307 864 271 b 918 135 876 238 918 199 b 743 -6 918 42 842 -6 m 743 42 b 856 138 808 42 856 74 b 744 232 856 199 807 232 b 631 136 682 232 631 197 b 743 42 631 74 681 42 m 744 275 b 839 357 797 275 839 304 b 743 436 839 404 799 436 b 647 356 689 436 647 406 b 744 275 647 304 696 275 m 156 928 l 33 843 l 33 900 l 167 993 l 218 993 l 218 517 l 156 517 m 768 993 l 831 993 l 114 0 l 51 0 "},"⅓":{"ha":976,"x_min":0,"x_max":0,"o":"m 756 -6 b 576 140 646 -6 581 57 l 633 140 b 754 42 640 86 678 42 b 863 135 824 42 863 76 b 761 225 863 190 826 225 l 724 225 l 724 271 l 758 271 b 850 353 821 271 850 306 b 757 435 850 401 815 435 b 650 343 693 435 657 396 l 594 343 b 758 482 600 421 658 482 b 910 357 851 482 910 428 b 828 251 910 301 876 267 b 925 135 883 239 925 199 b 756 -6 925 47 858 -6 m 160 928 l 38 843 l 38 900 l 171 993 l 222 993 l 222 517 l 160 517 m 764 993 l 826 993 l 110 0 l 47 0 "},"⅜":{"ha":1015,"x_min":0,"x_max":0,"o":"m 792 -6 b 617 132 696 -6 617 40 b 719 254 617 197 661 239 b 636 358 672 271 636 307 b 792 482 636 435 710 482 b 947 360 875 482 947 435 b 865 256 947 307 913 271 b 967 135 925 238 967 199 b 792 -6 967 42 890 -6 m 792 42 b 904 138 857 42 904 74 b 793 232 904 199 856 232 b 679 136 731 232 679 197 b 792 42 679 74 729 42 m 793 275 b 888 357 846 275 888 304 b 792 436 888 404 847 436 b 696 356 738 436 696 406 b 793 275 696 304 744 275 m 832 993 l 894 993 l 178 0 l 115 0 m 217 511 b 38 657 107 511 42 572 l 94 657 b 215 558 101 603 139 558 b 324 651 285 558 324 593 b 222 742 324 706 288 742 l 185 742 l 185 788 l 219 788 b 311 869 282 788 311 821 b 218 951 311 918 276 951 b 111 860 154 951 118 913 l 56 860 b 219 999 61 938 119 999 b 371 872 313 999 371 944 b 289 768 371 818 338 782 b 386 650 344 756 386 715 b 217 511 386 563 319 511 "},"⅝":{"ha":1000,"x_min":0,"x_max":0,"o":"m 776 -6 b 601 132 681 -6 601 40 b 704 254 601 197 646 239 b 621 358 657 271 621 307 b 776 482 621 435 694 482 b 932 360 860 482 932 435 b 850 256 932 307 897 271 b 951 135 910 238 951 199 b 776 -6 951 42 875 -6 m 776 42 b 889 138 842 42 889 74 b 778 232 889 199 840 232 b 664 136 715 232 664 197 b 776 42 664 74 714 42 m 778 275 b 872 357 831 275 872 304 b 776 436 872 404 832 436 b 681 356 722 436 681 406 b 778 275 681 304 729 275 m 201 511 b 36 646 97 511 43 571 l 96 646 b 201 560 103 597 132 560 b 306 672 267 560 306 604 b 204 783 306 740 264 783 b 93 736 151 783 115 764 l 61 736 l 64 993 l 342 993 l 342 944 l 114 944 l 113 789 b 222 831 133 810 171 831 b 369 672 307 831 369 769 b 201 511 369 572 300 511 m 817 993 l 879 993 l 163 0 l 100 0 "},"⅔":{"ha":1032,"x_min":0,"x_max":0,"o":"m 811 -6 b 632 140 701 -6 636 57 l 689 140 b 810 42 696 86 733 42 b 918 135 879 42 918 76 b 817 225 918 190 882 225 l 779 225 l 779 271 l 814 271 b 906 353 876 271 906 306 b 813 435 906 401 871 435 b 706 343 749 435 713 396 l 650 343 b 814 482 656 421 714 482 b 965 357 907 482 965 428 b 883 251 965 301 932 267 b 981 135 939 239 981 199 b 811 -6 981 47 914 -6 m 25 529 l 206 711 b 292 861 263 769 292 811 b 200 950 292 917 256 950 b 96 842 139 950 104 911 l 39 842 b 201 999 44 940 107 999 b 353 863 296 999 353 943 b 253 686 353 797 319 750 l 128 565 l 358 565 l 358 517 l 25 517 m 844 993 l 907 993 l 190 0 l 128 0 "},"⅞":{"ha":963,"x_min":0,"x_max":0,"o":"m 739 -6 b 564 132 643 -6 564 40 b 667 254 564 197 608 239 b 583 358 619 271 583 307 b 739 482 583 435 657 482 b 894 360 822 482 894 435 b 813 256 894 307 860 271 b 914 135 872 238 914 199 b 739 -6 914 42 838 -6 m 739 42 b 851 138 804 42 851 74 b 740 232 851 199 803 232 b 626 136 678 232 626 197 b 739 42 626 74 676 42 m 740 275 b 835 357 793 275 835 304 b 739 436 835 404 794 436 b 643 356 685 436 643 406 b 740 275 643 304 692 275 m 281 942 l 31 942 l 31 993 l 360 993 l 360 985 l 172 517 l 108 517 m 756 993 l 818 993 l 101 0 l 39 0 "},"Ⓟ":{"ha":1172,"x_min":0,"x_max":0,"o":"m 431 781 l 596 781 b 799 615 719 781 799 731 l 799 611 b 599 446 799 494 717 446 l 503 446 l 503 217 l 431 217 m 596 500 b 728 611 679 500 728 535 l 728 615 b 596 724 728 694 678 724 l 503 724 l 503 500 m 585 32 b 1044 499 835 32 1044 228 b 588 961 1044 765 842 961 b 128 496 333 961 128 764 b 585 32 128 225 339 32 m 585 -12 b 76 496 303 -12 76 208 b 588 1006 76 779 301 1006 b 1096 499 876 1006 1096 781 b 585 -12 1096 210 871 -12 "},"″":{"ha":424,"x_min":0,"x_max":0,"o":"m 101 993 l 182 993 l 115 703 l 60 703 m 283 993 l 363 993 l 297 703 l 242 703 "},"′":{"ha":242,"x_min":0,"x_max":0,"o":"m 101 993 l 182 993 l 115 703 l 60 703 "}," ":{"ha":153,"x_min":0,"x_max":0,"o":""}}}
